<svg width="23" height="23" viewBox="0 0 23 23" fill="none" xmlns="http://www.w3.org/2000/svg">
<rect x="0.25" y="0.25" width="22.5" height="22.5" rx="6.75" fill="#D9E9FF" stroke="#246AFE" stroke-width="0.5"/>
<path d="M12.0501 16.4505H16.4502M16.5459 8.64688C16.6899 8.50293 16.8042 8.33202 16.8821 8.14393C16.96 7.95583 17.0002 7.75422 17.0002 7.55062C17.0002 7.34702 16.9601 7.1454 16.8822 6.95728C16.8044 6.76917 16.6902 6.59824 16.5462 6.45425C16.4023 6.31026 16.2314 6.19603 16.0433 6.11809C15.8552 6.04015 15.6536 6.00003 15.45 6C15.2464 5.99997 15.0447 6.04005 14.8566 6.11794C14.6685 6.19584 14.4976 6.31002 14.3536 6.45397L7.01309 13.7961C6.88539 13.9234 6.79095 14.0802 6.73808 14.2526L6.01151 16.6463C5.9973 16.6939 5.99623 16.7444 6.00841 16.7925C6.02059 16.8406 6.04557 16.8846 6.0807 16.9197C6.11584 16.9547 6.15981 16.9796 6.20796 16.9917C6.2561 17.0038 6.30663 17.0027 6.35417 16.9884L8.74839 16.2624C8.92063 16.21 9.07739 16.1161 9.2049 15.989L16.5459 8.64688Z" stroke="#246AFE" stroke-linecap="round" stroke-linejoin="round"/>
</svg>
