<svg width="1168" height="1168" viewBox="0 0 1168 1168" fill="none" xmlns="http://www.w3.org/2000/svg">
<g clip-path="url(#clip0_530_204)">
<path d="M584 1168C906.534 1168 1168 906.534 1168 584C1168 261.466 906.534 0 584 0C261.466 0 0 261.466 0 584C0 906.534 261.466 1168 584 1168Z" fill="#78CBF7"/>
<path d="M803.584 588.672C803.584 707.365 707.364 803.584 588.672 803.584C469.979 803.584 373.76 707.365 373.76 588.672C373.76 364.98 469.979 373.76 588.672 373.76C707.364 373.76 803.584 364.98 803.584 588.672Z" fill="#FFC49B"/>
<path d="M588.672 868.992C690.277 868.992 787.721 909.354 859.567 981.2C883.617 1005.25 904.138 1032.17 920.8 1061.15C825.626 1128.45 709.432 1168 584 1168C461.497 1168 347.805 1130.28 253.901 1065.82C271.018 1035.06 292.439 1006.54 317.776 981.2C389.622 909.354 487.066 868.992 588.672 868.992Z" fill="#0A6DA3"/>
<path d="M826.133 532.354C826.938 528.411 827.354 524.443 827.968 520.467C831.633 496.711 849.265 426.003 822.223 356.581C811.465 328.965 796.626 301.358 772.64 283.949C729.61 252.718 656.776 244 603.045 244C533.67 244 453.706 283.166 404.65 319.187C316.651 388.713 337.151 505.755 364.517 566.379C372.424 583.897 391.064 578.372 393.278 559.28L402.393 501.049C403.895 491.448 406.229 481.996 409.369 472.799L415.6 454.543C418.905 444.86 424.162 435.96 431.045 428.391C437.81 420.953 446.006 414.955 455.142 410.758L462.678 407.295C463.993 406.691 465.424 406.378 466.871 406.378H470.031C484.912 406.378 499.712 408.575 513.951 412.898C523.2 415.705 532.698 417.62 542.313 418.614L564.503 420.91L587.893 422.709C599.579 423.608 611.331 422.342 622.557 418.974C632.276 416.058 642.229 413.987 652.305 412.784L669.534 410.727C676.161 409.935 682.847 409.764 689.505 410.216C707.398 411.429 724.701 417.109 739.831 426.738L742.281 428.297C743.784 429.253 745.013 430.582 745.851 432.154L765.832 469.681C768.902 475.446 770.854 481.739 771.585 488.23L775.533 523.266L778.06 555.489L780.536 577.494C781.518 586.224 793.173 588.468 797.327 580.727C797.54 580.33 797.783 579.949 798.054 579.588L806.452 568.391C808.15 566.127 810.246 564.192 812.639 562.681C817.996 559.297 821.741 553.875 823.008 547.667L826.133 532.354Z" fill="black"/>
<path d="M381 656C403.644 656 422 633.39 422 605.5C422 577.61 403.644 555 381 555C358.356 555 340 577.61 340 605.5C340 633.39 358.356 656 381 656Z" fill="#FFC49A"/>
<path d="M804 656C826.644 656 845 633.39 845 605.5C845 577.61 826.644 555 804 555C781.356 555 763 577.61 763 605.5C763 633.39 781.356 656 804 656Z" fill="#FFC49A"/>
<path d="M499 763H668V865C668 906.421 634.421 940 593 940H574C532.579 940 499 906.421 499 865V763Z" fill="#FFC49A"/>
<path d="M501.435 786.854C502.413 786.978 504.623 787.231 506.594 787.606C508.683 788.004 510.897 788.235 512.622 788.676C514.662 789.198 516.433 789.367 518.342 789.871C519.909 790.284 521.843 790.876 523.878 791.38C525.677 791.825 527.629 792.386 530.639 792.576C532.693 792.706 534.641 793.14 538.018 793.331C540.561 793.474 542.76 793.895 545.157 794.086C547.928 794.306 551.617 794.65 557.384 794.84C559.008 794.894 562.176 795.156 566.785 795.218C569.33 795.252 572.391 795.533 576.079 795.595C581.127 795.68 587.784 796.159 594.469 796.35C596.28 796.402 602.981 796.665 612.82 796.603C618.662 796.566 622.105 796.039 624.439 795.597C627.353 795.046 629.604 795.156 631.822 794.842C634.391 794.48 636.129 794.152 638.402 793.71C640.892 793.227 642.889 793.02 645.844 792.829C647.716 792.708 649.658 792.265 651.568 792.074C653.277 791.904 656.168 791.382 658.334 791.006C660.486 790.627 662.334 790.503 663.071 790.252C663.442 790.125 663.807 790.001 664.921 789.872" stroke="#E99672" stroke-width="5" stroke-linecap="round"/>
<path d="M501.065 787.985C501.8 788.487 503.272 789.238 505.057 790.246C506.748 791.201 509.17 792.506 511.024 793.58C512.439 794.399 513.975 795.027 515.453 795.844C516.883 796.635 518.647 797.54 520.557 798.486C522.071 799.235 523.813 800.182 525.417 800.876C528.773 802.329 533.778 805.465 535.381 806.41C536.79 807.24 538.575 808.106 541.098 809.427C543.279 810.569 545.712 811.88 547.497 812.574C549.325 813.286 551.979 814.393 554.26 815.403C558.054 817.082 559.736 817.918 561.827 818.612C564.154 819.385 567.479 820.937 569.7 821.882C573.084 823.322 578.307 825.216 581.015 826.346C584.393 827.756 589.378 829.616 591.78 830.311C594.994 831.239 599.342 833.012 601.377 833.707C604.218 834.676 608.325 835.911 610.417 836.662C613.21 837.664 616.436 838.545 621.723 840.307C625.144 841.447 627.39 842.069 629.425 842.701C631.084 843.217 633.538 843.956 636.617 845.215C638.537 845.999 641.288 846.847 643.264 847.607C645.416 848.435 647.443 848.99 649.66 849.494C651.447 849.9 653.105 850.877 654.889 851.381C656.488 851.832 657.902 853.013 659.686 853.707C660.485 854.145 661.227 854.651 662.024 855.09C662.456 855.281 662.943 855.405 663.814 855.911" stroke="#E99672" stroke-width="5" stroke-linecap="round"/>
<path d="M665.659 855.534C665.537 854.659 665.29 846.424 665.597 840.953C665.773 837.801 666.028 834.802 666.335 830.588C666.746 824.93 666.519 820.696 666.704 816.205C666.868 812.216 666.766 804.741 666.706 800.643C666.397 794.91 666.276 793.273 666.03 792.458C665.907 792.016 665.785 791.518 665.659 790.25" stroke="#E99672" stroke-width="5" stroke-linecap="round"/>
<path d="M665.198 793.227C665.026 794.022 664.331 795.8 663.287 799.398C662.815 801.023 662.415 802.299 662.023 803.282C661.576 804.403 661.282 800.799 661.065 799.55C660.758 797.785 661.976 796.169 662.108 794.435C662.139 794.029 662.237 793.766 662.109 793.63C661.356 792.828 655.328 795.261 650.673 796.384C648.599 796.884 647.187 797.141 640.289 797.276C637.09 797.338 634.131 797.675 631.568 797.81C629.941 797.895 628.386 798.209 625.607 798.344C623.165 798.462 620.031 798.743 616.601 798.878C614.626 798.955 612.375 799.277 610.675 799.412C609.139 799.533 607.758 799.811 606.279 799.946C604.875 800.074 602.975 800.345 599.758 800.48C597.911 800.557 596.186 800.879 594.443 801.014C594.005 801.048 593.575 801.146 590.423 801.191C587.271 801.237 581.412 801.237 578.264 801.193C573.897 801.131 571.986 800.793 570.94 800.659C569.777 800.509 567.73 800.169 566.111 799.947C564.251 799.692 562.502 799.635 561.15 799.413C559.277 799.279 555.301 799.101 552.491 798.879C551.969 798.834 551.28 798.834 550.569 798.834" stroke="#E99672" stroke-width="5" stroke-linecap="round"/>
<path d="M514.014 791.625C514.533 791.625 515.747 791.801 517.185 792.113C518.683 792.439 522.855 792.426 526.231 792.647C531.061 792.964 533.665 792.96 536.413 793.181C541.414 793.584 542.815 793.67 544.298 793.805C545.788 793.94 547.17 794.204 548.345 794.383C550.104 794.65 551.259 795.272 553.52 795.894C555.149 796.342 556.309 797.05 558.308 797.763C560.235 798.45 562.309 798.834 563.751 799.055C565.437 799.314 569.939 799.368 572.803 799.102C574.275 798.965 575.804 798.39 577.067 798.211C580.401 797.74 585.804 798.118 587.598 798.565C589.701 799.089 590.948 799.101 592.386 799.322C592.779 799.368 593.209 799.368 593.604 799.412C593.998 799.456 594.343 799.544 595.22 799.635" stroke="#E99672" stroke-width="5" stroke-linecap="round"/>
<path d="M522.37 793.761C522.367 793.849 523.409 794.204 524.584 794.826C526.188 795.675 527.326 795.806 528.588 796.384C529.675 796.881 530.72 797.408 531.938 797.896C534.132 798.776 535.592 799.544 539.154 801.274C539.956 801.663 540.293 801.856 540.212 801.947C539.158 803.128 537.086 801.327 535.735 800.971C534.257 800.581 531.352 799.02 529.425 798.079C528.168 797.465 526.903 796.879 525.551 795.989C524.535 795.319 523.419 794.919 522.374 794.341C521.248 793.719 519.85 793.761 519.025 793.716C518.276 793.676 520.688 793.494 525.081 793.538C527.152 793.558 530.608 793.761 535.78 793.893C540.687 794.018 541.859 794.738 543.644 795.05C544.898 795.27 546.643 795.363 548.948 795.76C553.543 796.553 555.698 797.942 557.05 798.298C558.158 798.591 558.923 798.922 558.927 799.055C559.013 801.984 553.103 798.567 548.806 798.123C543.635 797.59 541.875 797.766 540.392 797.5C539.084 797.143 537.869 796.788 535.83 796.476C534.663 796.431 532.595 796.431 530.464 796.431" stroke="#E99672" stroke-width="5" stroke-linecap="round"/>
<path d="M540.125 799.634C542.021 800.163 543.687 800.7 544.99 801.188C546.113 801.61 549.755 802.387 554.67 803.322C558.624 804.073 562.137 804.44 565.396 804.884C568.388 805.29 573.072 805.241 576.411 805.02C580.325 804.76 583.794 804.707 587.458 804.486C590.478 804.303 592.865 804.352 594.984 804.219C602.426 803.75 604.004 804.44 605.743 804.662C607.459 804.881 609.14 804.795 611.777 804.929C621.056 805.399 622.282 804.707 623.979 804.486C627.569 804.017 632.465 803.372 634.896 802.709C640.878 801.076 645.432 800.435 646.915 800.17C648.816 799.829 651.61 799.725 654.006 799.59C655.308 799.517 656.315 799.1 657.361 798.879C657.882 798.833 658.407 798.745 658.928 798.568C659.19 798.478 659.449 798.39 659.976 798.299" stroke="#E99672" stroke-width="5" stroke-linecap="round"/>
<path d="M661.544 795.095C660.418 795.095 658.332 795.448 655.641 795.894C654.25 796.124 651.93 796.687 647.931 797.355C643.932 798.024 638.331 798.817 635.23 799.226C631.705 799.69 630.307 799.81 628.655 800.077C624.162 800.804 617.165 801.946 615.81 802.303C613.908 802.803 611.504 803.815 606.861 805.368C602.739 806.746 600.887 806.485 598.884 806.62C597.837 806.691 594.208 806.843 589.378 806.799C586.609 806.576 585.301 806.488 584.694 806.355C584.345 806.309 583.915 806.309 583.471 806.309" stroke="#E99672" stroke-width="5" stroke-linecap="round"/>
<path d="M535.687 804.974C537.337 805.15 539.932 806.037 542.598 806.841C544.176 807.316 545.86 807.82 548.775 808.62C551.163 809.275 554.643 810.485 556.354 811.158C557.9 811.766 559.615 812.536 561.096 813.027C563.436 813.804 565.882 814.672 568.143 815.385C570.092 815.999 571.976 816.808 573.368 817.077C575.32 817.455 576.676 817.966 578.025 818.367C579.744 818.878 581.115 819.301 583.244 820.101C584.638 820.625 585.987 821.79 587.382 822.859C588.776 823.929 590.165 824.994 592.6 827.349C593.765 828.476 596.333 829.528 598.999 830.559C600.983 831.327 603.827 832.027 605.528 832.518C607.573 833.109 608.793 833.452 609.882 833.631C611.311 833.866 612.793 834.52 614.536 835.098C616.076 835.609 617.493 835.855 619.063 836.433C621 837.147 623.322 837.457 626.538 838.124C631.745 839.202 633.683 839.593 634.906 839.906C635.928 840.167 636.993 840.571 638.039 840.974C639.118 841.39 640.388 841.729 643.211 843.016C644.838 843.758 645.871 844.132 646.917 844.533C648.031 844.96 649.177 845.467 650.312 845.824C651.548 846.212 652.921 846.802 654.01 846.981C655.36 847.203 656.316 847.87 658.012 848.67C659.43 849.339 660.844 850.006 661.495 850.273C661.792 850.395 662.06 850.364 662.194 850.056C662.92 848.374 662.588 846.637 662.805 844.987C663.147 842.377 663.11 839.001 662.893 836.663C662.82 835.868 662.763 835.06 662.632 831.927C662.516 829.148 662.588 823.947 662.545 821.137C662.487 817.344 662.154 815.927 662.023 814.37C661.897 812.888 661.632 811.655 661.5 808.503C661.282 806.403 661.196 805.244 661.066 804.447C661.021 803.914 661.021 803.121 661.021 802.304" stroke="#E99672" stroke-width="5" stroke-linecap="round"/>
<path d="M665.982 803.906C665.982 805.057 665.809 807.014 665.244 809.326C664.851 810.934 664.676 812.53 664.416 814.224C664.207 815.591 663.893 817.513 663.676 818.898C663.545 820.191 663.37 821.168 663.327 822.012C663.284 822.415 663.198 822.767 663.109 823.664" stroke="#E99672" stroke-width="5" stroke-linecap="round"/>
<path d="M657.104 800.703C657.104 803.191 657.966 807.96 659.145 812.919C660.301 817.78 660.76 821.259 660.803 821.792C660.847 822.339 661.021 824.711 661.064 828.047C661.083 829.539 661.282 833.418 661.239 839.024C661.215 842.178 660.849 844.128 660.457 845.509C660.279 846.139 659.804 846.624 659.457 846.76C657.536 847.513 656.509 839.017 655.496 835.198C654.726 832.297 653.971 828.391 653.754 826.391C653.455 823.628 653.796 821.443 653.927 819.015C654.465 808.997 654.232 807.917 654.449 806.804C654.576 806.15 654.579 805.511 654.71 804.582C654.803 803.923 654.754 802.86 655.444 804.474C656.133 806.088 657.512 810.405 658.308 813.158C659.4 816.933 659.454 818.498 659.498 819.43C659.692 823.639 659.371 829.71 658.46 832.502C656.083 839.786 655.627 840.747 655.321 841.332C654.276 843.333 655.016 834.996 654.799 831.154C654.573 827.145 654.493 824.129 654.277 821.583C653.955 817.807 654.666 816.552 654.797 814.994C654.969 812.971 655.277 811.922 655.493 810.499C655.762 808.732 655.799 806.24 656.016 804.091C656.061 803.645 656.06 803.116 656.103 806.412C656.146 809.709 656.232 816.845 656.234 820.654C656.235 825.536 655.799 827.13 655.539 828.244C655.172 829.818 654.754 831.579 654.104 834.068C653.717 835.551 653.538 837.186 653.232 838.567C653.164 838.876 653.188 839.145 653.102 839.105C651.901 838.547 652.143 836.486 651.927 835.152C651.714 833.844 651.796 832.569 651.665 830.712C651.399 826.926 651.707 823.761 651.838 821.768C652.043 818.636 651.968 816.194 652.099 814.027C652.547 806.593 651.882 804.457 651.665 802.445C651.613 801.956 651.621 801.338 651.664 801.197C652.257 799.249 654.311 810.181 654.797 813.779C654.918 814.668 655.016 815.737 655.059 816.892C655.095 817.879 655.277 821.761 655.234 827.276C655.203 831.142 654.843 833.09 654.668 834.96C654.455 837.241 653.626 839.14 652.972 840.835C652.285 842.616 652.232 844.128 651.927 845.641C651.838 846.08 651.882 846.616 651.839 846.756C651.786 846.929 651.621 843.716 651.578 839.491C651.538 835.599 651.188 832.038 651.056 830.169C650.948 828.64 650.493 825.822 649.624 822.037C647.85 814.317 648.054 812.28 648.052 809.568C648.051 808.976 648.31 808.718 648.485 808.714C649.926 808.681 649.966 812.44 651.007 816.35C651.94 819.849 651.793 821.7 651.925 823.169C652.129 825.436 651.971 827.931 651.622 829.001C651.535 829.269 651.449 829.533 651.275 829.449C649.794 828.732 649.365 824.316 648.191 818.943C647.637 816.404 647.448 814.186 647.315 811.686C647.037 806.46 647.268 803.375 647.571 802.975C647.727 802.769 648.133 802.839 648.439 802.971C650.431 803.829 651.527 808.958 652.316 814.071C653.681 822.928 652.143 824.46 651.71 826.416C651.358 828.001 651.099 829.8 650.406 831.8C649.546 834.28 647.882 837.276 647.228 838.346C647.072 838.6 647.01 838.878 646.922 839.147C646.835 839.415 646.749 839.679 646.704 839.199C646.373 835.61 646.399 831.525 646.182 826.538C645.937 820.893 646.051 816.552 645.921 814.515C645.567 808.993 645.615 807.741 645.399 806.581C645.301 806.056 645.268 805.335 645.095 804.535C644.957 803.903 645.866 807.693 647.476 814.142C648.532 818.375 649.093 821.951 649.314 824.681C649.469 826.603 649.704 828.375 649.75 835.562C649.767 838.265 649.36 839.679 649.054 841.058C648.967 841.453 649.01 841.901 648.838 842.084C648.665 842.267 648.321 842.178 648.057 841.957C646.965 841.039 646.404 838.809 644.882 835.25C643.106 831.098 643.182 828.038 642.961 825.056C642.76 822.334 642.571 820.028 642.439 817.799C642.317 815.74 642.049 814.149 641.917 812.102C641.813 810.487 641.526 808.718 641.395 807.427C641.261 806.124 641.004 804.537 640.872 802.668C640.841 802.218 640.743 801.867 640.742 801.905C640.671 804.013 641.438 807.367 641.871 812.114C642.285 816.65 642.046 820.009 642.177 821.561C642.517 825.604 642.482 828.102 642.699 830.863C642.915 833.621 643.004 835.584 643.221 837.407C643.29 837.984 643.265 838.691 643.136 838.57C642.301 837.785 642.31 836.128 641.532 833.876C639.709 828.602 638.74 824.295 638.524 822.918C637.839 818.572 636.738 813.257 636.304 811.125C635.859 808.934 635.954 806.152 636.04 803.214C636.067 802.298 636.299 802.566 636.646 803.143C638.242 805.793 638.649 807.458 640.127 815.223C640.676 818.111 640.827 819.564 640.657 821.748C640.536 823.309 638.832 817.011 637.876 812.485C636.145 804.287 636.651 802.753 636.521 802.484C636.48 802.399 636.476 803.095 636.864 805.922C637.252 808.75 638.027 813.86 638.427 816.845C639.086 821.769 639.088 824.097 639.304 825.795C639.497 827.302 639.61 830.142 639.827 832.247C639.996 833.892 640.132 834.964 639.96 835.41C639.888 835.595 639.443 835.327 639.093 835.016C638.33 834.338 636.32 830.198 633.321 823.491C630.904 818.085 630.212 814.242 629.734 812.375C629.313 810.728 628.385 810.227 627.864 810.005C627.593 809.89 627.343 809.695 627.64 809.516C629.751 808.248 631.421 808.803 634.073 808.757C635.532 808.731 636.474 809.068 636.478 809.201C636.509 810.255 631.977 808.806 627.586 808.139C625.192 807.775 623.776 807.824 619.112 807.91C615.135 807.984 607.9 808.526 603.913 808.797C599.405 809.103 596.033 809.247 591.466 809.291C586.964 809.334 582.609 809.69 580.823 809.825C578.684 809.986 573.846 810.576 570.422 810.893C566.788 811.229 562.064 810.939 559.718 810.805C558.305 810.723 557.103 810.405 555.841 810.005C554.667 809.633 553.536 808.542 552.185 807.647C550.876 806.781 549.27 805.957 546.924 805.067C545.524 804.535 544.308 803.997 542.613 803.419C542.217 803.285 541.958 803.196 542.558 803.151C546.465 802.855 548.382 803.373 551.295 803.594C557.081 804.034 558.659 804.174 560.355 804.617C561.675 804.962 563.788 805.327 566.999 805.73C572.307 806.397 577.449 805.511 580.014 805.111C582.835 804.67 585.465 804.441 587.249 804.219C589.717 803.912 592.677 803.907 594.91 804.128C595.647 804.201 596.865 804.35 598.43 804.617C599.635 804.823 604.059 805.589 610.624 807.144C617.027 808.661 619.927 809.599 622.238 809.825C625.396 810.133 630.288 809.695 631.511 809.47C633.98 809.014 637.516 806.758 638.648 806.223C639.001 806.056 639.427 805.781 639.778 805.601C640.371 805.296 635.743 805.242 627.999 805.286C624.562 805.305 623.34 805.509 621.306 805.685C614.944 806.236 612.041 806.929 608.505 807.155C606.532 807.281 603.769 807.73 601.494 807.956C599.745 808.129 597.842 808.355 592.933 808.49C591.831 808.52 591.314 808.622 588.678 808.667C586.042 808.713 581.303 808.713 578.689 808.669C575.728 808.619 571.929 808.446 566.362 808.49C563.55 808.512 559.999 808.713 555.949 808.713C554.743 808.713 555.26 808.713 556 808.889C559.156 809.64 561.693 810.753 563.404 811.603C564.02 811.91 564.754 812.093 565.362 812.492C566.491 813.233 566.67 815.025 567.279 816.406C567.801 817.594 569.276 818.143 571.061 819.255C572.507 820.156 574.326 821.08 575.718 821.615C577.552 822.321 579.454 822.682 581.072 822.908C582.525 823.11 584.593 823.398 590.887 824.594C594.829 825.343 599.299 826.687 600.872 826.913C602.88 827.201 607.195 827.403 609.839 827.668C610.971 827.937 612.015 828.025 612.71 828.158C613.06 828.204 613.404 828.204 613.76 828.204" stroke="#E99672" stroke-width="5" stroke-linecap="round"/>
<path d="M572.504 812.717C572.504 812.894 574.141 813.513 580.628 814.931C585.447 815.984 593.492 817.053 599.171 817.689C604.851 818.324 607.953 818.324 610.326 818.501C614.274 818.794 616.366 819.569 618.14 820.012C623.684 821.397 625.155 821.171 626.549 821.305C626.899 821.349 627.244 821.438 628.455 821.483C629.667 821.528 631.735 821.528 633.866 821.528" stroke="#E99672" stroke-width="5" stroke-linecap="round"/>
<path d="M627.86 815.655C627.688 815.655 623.463 815.655 616.765 815.566C612.004 815.504 610.459 814.944 609.153 814.765C607.12 814.487 605.759 814.143 604.279 814.008C601.931 813.795 599.493 813.609 598.012 813.297C596.182 813.163 594.965 812.985 593.703 812.719C593.396 812.629 593.137 812.541 592.349 811.917" stroke="#E99672" stroke-width="32" stroke-linecap="round"/>
<path d="M602.01 814.854C603.563 815.561 606.705 816.456 608.27 816.943C609.819 817.425 611.572 817.876 613.189 818.323C614.374 818.651 615.582 819.211 617.102 819.923C620.612 821.566 621.588 822.239 622.72 822.551C624.156 822.947 626.278 822.864 628.935 823.085C632.085 823.131 634.385 823.219 635.38 823.352C636.116 823.398 637.323 823.398 638.566 823.665" stroke="#E99672" stroke-width="32" stroke-linecap="round"/>
<path d="M502.099 784.552C502.008 784.526 501.771 784.473 501.541 784.441C501.142 784.384 500.902 784.368 500.651 784.348C500.462 784.333 500.23 784.25 500.012 784.23C499.925 784.222 499.847 784.184 499.775 784.19C499.577 784.207 499.558 784.512 499.498 784.749C499.398 785.146 499.452 785.394 499.472 785.572C499.496 785.796 499.965 785.264 500.123 785.172C500.301 785.068 500.413 784.909 500.558 784.823C500.728 784.722 500.913 784.645 501.078 784.592C501.288 784.525 501.506 784.526 501.697 784.526C501.88 784.526 502.046 784.684 502.224 784.75C502.41 784.819 502.573 784.855 502.731 784.908C502.934 784.976 503.166 784.961 503.205 784.974C503.374 785.03 502.772 784.842 502.45 784.685C502.337 784.619 502.258 784.579 502.179 784.553C502.139 784.539 502.1 784.526 502.06 784.513" stroke="#E99672" stroke-linecap="round"/>
<path d="M498.425 784.355C498.425 784.642 498.451 785.25 498.504 785.454C498.556 785.655 498.569 785.921 498.589 786.132C498.599 786.239 498.622 786.839 498.629 787.688C498.632 788.122 498.688 788.331 498.708 788.7C498.714 788.78 498.727 788.819 498.734 788.878C498.741 788.938 498.741 789.016 498.741 789.096" stroke="black" stroke-linecap="round"/>
<path d="M498.543 787.16C498.582 787.016 498.609 786.779 498.629 786.575C498.648 786.379 498.701 786.095 498.734 785.844C498.754 785.58 498.793 785.435 498.813 785.154C498.82 784.938 498.82 784.573 498.78 784.157" stroke="black" stroke-linecap="round"/>
<path d="M669.651 842.069C669.417 841.929 669.134 841.365 669.063 840.425C669.03 839.996 668.945 837.898 668.968 834.91C668.977 833.832 669.038 833.646 669.062 832.361C669.131 828.701 669.04 826.065 668.969 825.386C668.737 823.157 669.086 821.93 669.203 820.748C669.404 818.731 668.993 817.97 668.922 816.747C668.894 816.271 668.804 815.104 668.827 813.551C668.838 812.834 668.945 811.482 668.968 809.576C668.998 807.104 668.993 803.799 668.922 802.764C668.837 801.541 668.897 799.751 668.968 798.88C669.131 796.893 668.993 793.772 668.922 792.503C668.898 792.217 668.852 792.077 668.828 791.819C668.804 791.56 668.804 791.187 668.804 790.803" stroke="black" stroke-linecap="round"/>
<path d="M660.713 856.145C660.78 856.226 660.914 856.361 661.137 856.603C661.742 857.262 661.995 857.333 662.171 857.435C662.332 857.528 662.535 857.55 662.697 857.604C662.856 857.657 663.048 857.671 663.264 857.725C663.468 857.776 663.709 857.887 663.913 857.969C664.081 858.036 664.264 858.158 664.44 858.212C664.619 858.267 664.911 858.414 665.128 858.495C665.289 858.555 665.479 858.603 665.696 858.657C665.912 858.711 666.101 858.765 666.297 858.853C666.461 858.927 666.654 858.968 666.83 859.029C667.005 859.089 667.181 859.17 667.357 859.225C667.438 859.25 667.519 859.279 667.593 859.272C667.79 859.255 667.722 858.888 667.756 858.445C667.865 857.001 667.722 856.808 667.722 856.666C667.722 856.565 667.682 857.008 667.648 857.225C667.602 857.52 667.601 857.738 667.56 857.968C667.525 858.172 667.506 858.292 667.466 858.367C667.445 858.405 667.399 858.427 667.352 858.421C667.085 858.386 666.845 858.158 666.568 858.023C666.47 857.975 666.372 857.955 666.311 857.928C666.173 857.867 666.695 857.82 666.884 857.773C666.937 857.76 667.005 857.766 667.013 857.779C667.097 857.927 666.71 857.955 666.387 858.002C665.731 858.099 665.535 857.875 665.359 857.746C665.108 857.563 664.914 857.295 664.684 857.024C664.434 856.73 664.265 856.47 664.137 856.248C663.952 855.927 663.82 855.782 663.611 855.451C663.231 854.851 663.063 854.311 662.948 854.046C662.874 853.876 662.739 853.501 662.691 853.229C662.644 852.961 662.684 852.581 662.745 852.378C662.779 852.265 662.86 852.188 662.94 852.141C662.98 852.118 663.021 852.107 663.042 852.12C663.159 852.195 663.103 852.457 663.083 852.633C663.075 852.705 662.808 852.487 662.397 852.036C662.152 851.767 661.867 851.385 661.668 851.132C661.47 850.879 661.376 850.759 660.599 849.935C659.822 849.111 658.365 847.586 657.581 846.774C656.737 845.901 656.621 845.814 656.533 845.733C656.438 845.645 655.963 845.196 655.288 844.568C654.934 844.354 654.797 844.328 654.716 844.281C654.676 844.26 654.636 844.247 654.554 844.233" stroke="#E99672" stroke-linecap="round"/>
<path d="M504.937 746C505.104 747.518 505.444 750.214 506.371 752.593C507.217 754.764 507.81 757.496 508.572 759.702C509.354 761.968 510.689 763.259 510.608 763.853C510.479 764.795 508.496 762.929 507.734 763.008C504.453 763.347 508.318 768.667 509.08 770.873C509.462 771.98 510.182 772.906 510.436 773.333C510.019 771.226 508.664 769.362 507.904 768.349C507.48 767.839 506.978 767.336 505.952 766.818" stroke="#FFC49A" stroke-width="30" stroke-linecap="round"/>
<path d="M503.134 762.277C503.134 763.586 503.335 766.43 503.388 770.28C503.414 772.151 502.729 773.234 502.728 773.842C502.724 775.35 505.259 775.265 506.731 776.48C508.048 777.567 509.522 778.511 510.791 779.071C512.353 779.76 513.784 780.337 515.003 780.797C516.153 781.231 517.438 781.354 519.465 781.508C521.407 781.655 523.222 781.963 525.503 782.117C527.216 782.233 529.001 782.676 530.834 782.979C532.391 783.236 533.574 783.79 534.844 784.247C536.404 784.808 537.532 785.617 538.751 785.973C540.027 786.346 541.49 786.53 542.962 786.937C544.506 787.363 546.361 787.444 547.984 787.8C549.976 788.237 551.635 788.156 553.061 788.409C554.467 788.658 556.305 788.966 558.942 789.12C560.789 789.227 562.193 789.575 563.918 789.729C565.26 789.848 566.858 790.184 568.587 790.337C569.407 790.41 572.021 790.592 575.571 790.642C577.319 790.667 580.54 790.896 585.003 790.946C587.061 790.97 590.182 791.201 594.493 791.251C596.093 791.269 596.494 791.402 600.87 791.453C605.247 791.505 613.586 791.505 618.033 791.455C624.302 791.384 627.549 791 629.325 790.643C631.672 790.173 633.334 790.086 635.162 789.933C636.504 789.82 637.9 789.477 639.476 789.071C640.861 788.714 642.266 788.26 643.536 787.853C644.969 787.394 646.224 787.145 647.444 786.685C648.687 786.217 650.383 786.128 651.959 785.722C653.251 785.388 654.646 785.111 656.019 784.758C657.546 784.366 658.908 783.997 660.484 783.54C661.86 783.142 662.97 782.475 664.189 782.068C665.408 781.561 666.322 780.952 666.829 780.497C667.034 780.243 667.135 779.942 667.238 779.022" stroke="#FFC49A" stroke-width="15" stroke-linecap="round"/>
<path d="M595.385 790.592C594.579 790.896 592.956 791.097 591.433 791.453C589.941 791.803 588.291 791.81 586.11 792.062C582.322 792.501 580.881 791.81 578.803 791.557C575.014 791.096 572.77 791.201 570.129 790.948C564.358 790.396 561.712 790.592 559.515 790.289C558.193 790.106 556.828 789.477 555.506 789.324C554.17 789.168 552.767 788.868 551.094 788.512C548.753 788.014 547.086 787.955 544.196 787.801C542.281 787.699 540.692 787.243 539.116 786.94C537.806 786.688 536.43 785.927 535.057 785.417C533.596 784.875 532.368 784.101 531.149 783.591C529.963 783.095 528.715 782.98 526.943 782.727C522.765 782.132 521.103 782.17 519.683 781.714C517.463 781 516.232 780.648 514.962 780.494C513.335 780.297 511.969 779.43 510.75 779.024C509.497 778.606 508.115 777.707 506.792 776.944C505.63 776.274 504.358 775.576 502.785 774.713C501.01 773.738 499.791 773.14 498.521 772.327C497.015 771.363 495.833 770.095 494.916 768.98C494.712 768.674 494.511 768.372 494.358 768.016C494.204 767.66 494.104 767.258 494 766.844" stroke="#FFC49A" stroke-width="15" stroke-linecap="round"/>
<path d="M495.522 765.931C496.232 767.855 496.838 769.475 498.053 771.149C500.522 774.553 502.616 775.765 504.093 776.938C505.582 778.122 507.287 779.016 508.862 779.883C510.046 780.534 511.549 780.947 512.872 781.457C514.136 781.944 516.214 782.165 518.197 782.472C520.537 782.835 521.7 783.486 523.222 783.69C524.943 783.92 526.468 784.503 527.891 784.806C529.627 785.175 530.834 785.416 533.62 786.224C535.402 786.742 536.819 786.938 538.343 787.292C540.709 787.84 542.3 788.156 543.673 788.459C545.26 788.809 546.867 789.07 548.442 789.373C549.726 789.619 550.928 789.88 552.148 790.033C553.481 790.201 555.69 790.689 557.829 790.947C559.461 791.143 561.481 791.402 563.359 791.556C565.05 791.694 567.46 792.011 569.197 792.165C570.635 792.292 572.441 792.62 574.573 792.773C577.611 792.993 581.578 793.128 585.253 793.28C588.423 793.412 594.253 793.332 597.456 793.282C603.188 793.192 607.454 792.827 608.777 792.673C610.21 792.506 612.021 792.218 613.597 792.064C614.887 791.938 616.284 791.609 618.112 791.253C619.517 790.979 620.954 790.695 622.324 790.339C624.345 789.814 625.825 789.983 627.045 789.68C628.36 789.353 630.185 788.972 631.864 788.462C633.445 787.982 635.867 786.945 637.396 786.028C638.716 785.014 639.834 783.897 640.391 783.289C640.647 782.983 640.848 782.682 641.359 781.763" stroke="#FFC49A" stroke-width="15" stroke-linecap="round"/>
<path d="M566.05 833.657C566.399 833.479 567.807 834.006 569.087 834.493C570.862 835.168 572.13 835.419 573.409 835.772C574.527 836.081 575.57 836.477 576.63 836.787C577.655 837.086 578.745 837.271 579.848 837.624C581.094 838.023 582.709 838.239 584.521 838.639C585.951 838.954 587.561 839.123 589.064 839.257C590.403 839.376 592.144 839.827 593.783 840.227C594.864 840.49 595.943 840.711 597.047 841.064C598.374 841.489 599.822 841.505 601.279 841.858C603.088 842.296 604.85 842.827 606.219 842.961C607.529 843.089 609.956 843.447 611.599 843.71C613.145 843.958 614.904 844.15 616.493 844.46C617.629 844.681 620.095 844.77 622.838 844.989C625.021 845.164 626.639 845.122 628.04 845.254C631.174 845.55 633.606 845.386 636.318 845.518C643.038 845.846 647.806 845.476 648.421 845.344C649.895 845.027 650.979 844.86 652.258 844.726C653.464 844.6 654.683 844.33 655.962 843.977C657.067 843.711 658.123 843.537 659.182 843.183C659.448 843.095 659.71 843.007 659.98 842.917" stroke="#FFC49A" stroke-width="15" stroke-linecap="round"/>
<path d="M611.031 847.945C610.242 847.77 608.48 847.416 607.2 847.196C605.497 846.904 604.247 846.886 603.097 846.667C602.048 846.466 600.982 846.183 599.659 845.829C598.309 845.469 597.277 844.86 596.218 844.243C594.885 843.468 593.134 842.568 591.941 842.125C590.671 841.654 589.604 841.155 588.545 840.583C587.476 840.005 586.165 839.658 585.105 839.171C584.01 838.668 582.989 838.245 582.235 837.892C581.306 837.456 584.302 838.065 585.625 838.638C586.92 839.199 588.006 839.653 589.285 840.225C590.357 840.705 591.446 841.15 592.856 841.681C594.705 842.376 595.679 843.092 596.783 843.489C598.103 843.964 599.119 844.415 601.057 845.208C602.38 845.748 604.665 846.617 607.933 847.589C610.194 848.262 611.819 848.474 612.879 848.694C613.925 848.91 614.995 849.003 616.581 849.486C618.132 849.958 619.403 849.972 620.596 850.105C622.051 850.326 623.461 850.501 625.134 850.81C625.838 850.855 626.885 850.855 627.965 850.855" stroke="#FFC49A" stroke-width="15" stroke-linecap="round"/>
<path d="M644.104 851.914C645.425 852.617 646.481 853.321 647.54 854.028C648.6 854.734 649.656 855.263 650.715 855.836C651.783 856.414 654.318 856.412 656.007 856.192C656.535 856.147 657.154 856.06 657.814 855.884C658.125 855.795 658.387 855.708 658.657 855.618" stroke="#FFC49A" stroke-width="15" stroke-linecap="round"/>
<path d="M664.618 861.714C664.659 861.591 664.783 861.344 664.875 861.035C664.986 860.668 665.277 860.417 665.36 860.16C665.459 859.85 665.463 859.552 665.535 859.182C665.701 858.332 665.484 857.498 665.535 856.895C665.584 856.319 665.607 855.948 665.659 855.535C665.702 855.19 665.689 854.916 665.72 854.385C665.799 853.04 665.71 852.073 665.68 851.736C665.61 850.973 665.649 850.384 665.618 850.036C665.508 848.802 665.669 848.429 665.72 848.036C665.777 847.605 665.793 847.233 665.844 846.21C665.884 845.414 665.854 843.884 665.844 843.065C665.833 842.185 665.793 841.898 665.782 841.517C665.761 840.725 665.772 839.61 665.803 838.983C665.832 838.395 665.895 837.571 665.875 836.42C665.872 836.205 665.753 836.23 665.68 836.25C665.31 836.356 664.764 836.353 664.485 836.436C664.169 836.529 663.837 836.56 663.569 836.621C663.314 836.679 663.074 836.786 662.817 836.868C662.521 836.963 662.271 837.033 662.024 837.167C661.768 837.305 661.468 837.404 661.169 837.497C660.891 837.583 660.664 837.713 660.365 837.795C660.079 837.874 659.758 838.022 659.49 838.156C659.236 838.282 658.934 838.372 658.635 838.486C658.562 838.516 658.501 838.557 658.429 838.599C658.356 838.64 658.275 838.681 658.129 838.723" stroke="#FFC49A" stroke-width="5" stroke-linecap="round"/>
<path d="M665.28 834.266C665.396 834.266 665.575 834.24 665.749 834.195C665.943 834.145 666.128 834.125 666.321 834.105C666.518 834.085 666.668 834.009 666.829 833.957C667.179 833.846 667.71 833.893 667.864 833.874C668.206 833.831 668.006 835.023 668.025 835.293C668.032 835.358 668.045 835.409 668.051 835.454C668.058 835.5 668.058 835.538 668.058 835.577" stroke="#FFC49A" stroke-linecap="round"/>
<path d="M495.976 783.4C496.1 783.472 496.386 783.579 496.62 783.713C496.819 783.828 497.049 783.866 497.327 783.946C497.648 784.04 497.855 784.134 498.16 784.251C498.285 784.296 498.411 784.332 498.545 784.367C498.608 784.385 498.661 784.403 498.716 784.421" stroke="#78CBF7" stroke-linecap="round"/>
<path d="M498.555 784.636C498.572 784.761 498.644 785.047 498.671 785.378C498.698 785.712 498.68 786.068 498.653 786.48C498.608 787.086 498.626 787.967 498.653 788.323C498.662 788.625 498.662 789.174 498.662 789.741" stroke="#78CBF7" stroke-linecap="round"/>
<path d="M498.501 788.613C498.465 788.417 498.358 787.987 498.331 787.664C498.281 787.077 498.25 786.106 498.107 785.864C498.014 785.707 497.892 785.604 497.856 785.488C497.779 785.237 497.891 784.978 497.963 784.736C498.035 784.476 498.124 784.314 498.249 784.234C498.321 784.206 498.409 784.206 498.608 784.26" stroke="#78CBF7" stroke-linecap="round"/>
<path d="M669.554 844.328C669.554 844.304 669.554 844.28 669.554 843.497C669.554 842.714 669.554 841.173 669.542 840.343C669.506 839.442 669.458 839.297 669.41 839.154C669.386 839.082 669.362 839.011 669.338 838.793" stroke="#78CBF7" stroke-linecap="round"/>
<path d="M669.41 843.537C669.266 843.011 669.219 842.629 669.183 840.765C669.167 839.992 669.17 839.323 669.206 838.104C669.29 837.549 669.362 837.285 669.41 837.142C669.434 837.069 669.457 836.998 669.482 836.925" stroke="#78CBF7" stroke-linecap="round"/>
<path d="M669.554 843.106C669.553 842.939 669.887 842.509 670.188 842.101C670.295 841.91 670.392 841.741 670.476 841.598C670.512 841.525 670.536 841.454 670.56 841.381" stroke="#78CBF7" stroke-linecap="round"/>
<path d="M669.051 842.531C669.075 842.317 669.17 841.886 669.183 840.094C669.186 839.609 669.123 839.346 669.111 839.142C669.098 838.909 669.004 839.655 668.908 840.002C668.824 840.306 668.764 840.541 668.764 840.602C668.764 841.045 668.836 839.873 668.967 839.573C669.113 839.24 669.123 838.891 669.183 838.436C669.276 837.722 669.123 837.334 669.183 836.998C669.237 836.689 669.314 836.304 669.351 835.991C669.388 835.671 669.53 835.297 669.626 834.985C669.722 834.674 669.77 834.196 669.83 833.811C669.892 833.407 669.914 832.737 669.973 832.123C670.009 831.75 670.057 831.416 670.117 831.092C670.177 830.649 670.297 830.217 670.345 830.038C670.369 829.954 670.392 829.882 670.417 829.809" stroke="#78CBF7" stroke-linecap="round"/>
<path d="M672.545 843.12C672.545 842.823 672.495 842.224 672.445 841.117C672.423 840.629 671.999 840.255 671.785 839.904C671.601 839.603 671.448 839.306 671.174 838.907C671.017 838.678 671.099 838.383 671.049 838.27C671.017 838.199 670.974 838.506 670.974 838.532C670.974 839.18 671.048 837.536 671.111 837.149C671.208 836.544 671.247 836.189 671.285 835.678C671.332 835.042 671.397 834.144 671.435 833.347C671.462 832.77 671.448 832.074 671.41 831.563C671.374 831.074 671.397 830.478 671.435 830.178C671.482 829.802 671.547 829.356 671.585 828.621C671.614 828.057 671.696 827.361 671.734 825.595C671.756 824.593 671.846 823.595 671.884 822.985C671.908 822.592 671.996 822.248 672.033 821.501C672.058 821.022 672.145 820.628 672.183 820.054C672.22 819.854 672.246 819.457 672.258 818.933C672.27 818.731 672.295 818.657 672.32 818.581" stroke="#78CBF7" stroke-width="5" stroke-linecap="round"/>
<path d="M677.109 801.148C676.96 801.124 676.662 801.024 676.226 800.838C675.529 800.539 675.165 800.376 674.866 800.251C674.553 800.12 674.143 800.052 673.818 799.964C673.503 799.879 673.145 799.827 672.846 799.727C672.524 799.62 672.173 799.528 671.873 799.366C671.571 799.203 671.274 799.179 671.162 799.178C670.875 799.177 670.925 799.8 670.837 800.421C670.607 802.054 670.924 802.345 670.961 803.198C670.996 803.976 670.974 805.458 670.987 806.27C671.008 807.704 671.098 808.753 671.136 809.525C671.174 810.299 671.149 811.247 671.111 812.23C671.103 812.445 671.074 812.519 671.062 813.224C671.049 813.929 671.049 815.262 671.061 815.986C671.084 817.306 671.074 818.404 670.987 818.766C670.872 819.241 670.899 819.848 670.837 820.387C670.79 820.793 670.8 821.148 670.762 821.927C670.669 823.865 670.774 825.238 670.812 825.462C670.873 825.828 670.849 826.136 670.887 827.322C670.922 828.434 670.899 830.583 670.887 831.726C670.874 832.944 670.825 833.267 670.812 833.69C670.804 833.968 670.75 834.833 670.737 836.03C670.732 836.536 670.675 837.228 670.687 838.213C670.693 838.681 670.75 839.793 670.762 841.376C670.771 842.47 670.874 843.318 670.974 843.655C671.029 843.84 671.098 844.042 671.21 844.216C671.347 844.341 671.497 844.392 671.646 844.392C671.722 844.392 671.796 844.392 671.872 844.392" stroke="#78CBF7" stroke-width="5" stroke-linecap="round"/>
<path d="M672.47 802.346C672.396 802.221 672.098 802.022 671.86 801.748C671.61 801.459 671.474 801.15 671.348 800.85C671.217 800.537 671.198 800.178 671.062 799.878C670.929 799.587 670.85 799.28 670.75 798.98C670.65 798.68 670.55 798.382 670.451 798.082C670.322 797.698 670.425 797.136 670.525 796.736C670.625 796.336 670.724 795.988 670.762 795.49C670.793 795.081 670.948 794.741 670.986 794.354C671.062 793.574 670.999 792.396 670.888 792.259C670.825 792.196 670.751 792.147 670.676 792.097C670.601 792.047 670.527 791.997 670.45 791.946" stroke="#78CBF7" stroke-width="5" stroke-linecap="round"/>
<path d="M667.008 826.96C667.008 826.687 667.058 826.138 667.145 825.74C667.204 825.473 667.183 825.215 667.22 824.041C667.254 822.966 667.233 820.916 667.245 819.823C667.258 818.656 667.308 817.889 667.283 816.792C667.267 816.072 667.034 815.69 666.934 815.364C666.841 815.063 666.784 814.717 666.858 814.33C666.934 813.919 666.958 813.494 666.996 813.32C667.008 813.22 667.008 813.096 667.008 812.969" stroke="#E99672" stroke-width="3" stroke-linecap="round"/>
<path d="M667.084 818.73C667.108 818.556 667.158 818.01 667.22 817.448C667.343 816.343 667.308 815.791 667.37 815.167C667.499 813.874 667.308 813.322 667.246 812.772C667.176 812.15 667.158 811.503 667.096 810.815C666.972 809.434 667.158 808.735 667.22 808.071C667.308 807.138 667.158 806.638 667.096 806.088C667.049 805.67 667.059 805.339 667.021 804.202C666.986 803.14 667.009 801.09 666.996 799.997C666.979 798.432 666.885 797.633 666.847 797.197C666.787 796.513 666.834 795.564 666.871 794.866C666.884 794.715 666.908 794.641 666.921 794.059C666.934 793.478 666.934 792.392 666.859 791.198" stroke="#E99672" stroke-width="3" stroke-linecap="round"/>
</g>
<defs>
<clipPath id="clip0_530_204">
<rect width="1168" height="1168" fill="white"/>
</clipPath>
</defs>
</svg>
