<svg width="23" height="23" viewBox="0 0 23 23" fill="none" xmlns="http://www.w3.org/2000/svg">
<rect x="0.25" y="0.25" width="22.5" height="22.5" rx="6.75" fill="#FFD9D9" stroke="#DC2626" stroke-width="0.5"/>
<path d="M6 8.09524H17.5238M10.5833 14.7738V10.8452M12.9405 14.7738V10.8452M12.9405 6H10.5833C10.3749 6 10.1751 6.08278 10.0277 6.23013C9.8804 6.37748 9.79762 6.57733 9.79762 6.78571V8.09524H13.7262V6.78571C13.7262 6.57733 13.6434 6.37748 13.4961 6.23013C13.3487 6.08278 13.1489 6 12.9405 6ZM15.3552 16.8009C15.3407 16.9978 15.252 17.1818 15.1072 17.3159C14.9624 17.4501 14.7721 17.5243 14.5748 17.5238H8.94905C8.75166 17.5243 8.5614 17.4501 8.41658 17.3159C8.27176 17.1818 8.18314 16.9978 8.16857 16.8009L7.44048 8.09524H16.0833L15.3552 16.8009Z" stroke="#DC2626" stroke-width="0.956521" stroke-linecap="round" stroke-linejoin="round"/>
</svg>
