<svg width="668" height="223" viewBox="0 0 668 223" fill="none" xmlns="http://www.w3.org/2000/svg">
<path d="M164.752 205.392C165.055 205.733 165.425 206.024 165.854 206.241L166.216 206.422C166.443 206.276 166.714 206.189 167.005 206.189C167.778 206.189 168.409 206.79 168.46 207.55C168.783 207.711 169.104 207.873 169.428 208.032C169.687 207.795 170.031 207.649 170.41 207.649C171.216 207.649 171.87 208.303 171.87 209.109C171.87 209.139 171.868 209.17 171.866 209.2C172.152 209.334 172.438 209.469 172.725 209.602C172.992 209.3 173.381 209.109 173.816 209.109C174.623 209.109 175.276 209.763 175.276 210.569C175.276 210.632 175.271 210.695 175.263 210.756C175.658 210.932 176.055 211.104 176.451 211.277C176.675 211.137 176.94 211.055 177.224 211.055C177.929 211.055 178.518 211.555 178.654 212.219C179.061 212.39 179.47 212.557 179.878 212.724C180.097 212.592 180.354 212.515 180.629 212.515C181.303 212.515 181.869 212.972 182.037 213.592C182.346 213.714 182.655 213.838 182.965 213.958C183.231 213.669 183.612 213.488 184.035 213.488C184.829 213.488 185.474 214.122 185.494 214.911C185.832 215.035 186.17 215.161 186.509 215.284C186.762 215.074 187.087 214.948 187.441 214.948C188.15 214.948 188.742 215.453 188.874 216.123C189.166 216.223 189.459 216.32 189.752 216.419C190.019 216.115 190.411 215.921 190.848 215.921C191.614 215.921 192.242 216.513 192.302 217.264C192.556 217.346 192.811 217.429 193.065 217.509C193.33 217.138 193.763 216.895 194.254 216.895C195.049 216.895 195.695 217.531 195.712 218.322C195.953 218.394 196.193 218.467 196.435 218.538C196.694 218.135 197.145 217.868 197.66 217.868C198.459 217.868 199.107 218.509 199.119 219.304C199.362 219.371 199.605 219.436 199.848 219.5C200.109 219.104 200.556 218.841 201.066 218.841C201.828 218.841 202.452 219.424 202.52 220.167C202.792 220.231 203.065 220.296 203.338 220.357C203.605 220.026 204.014 219.814 204.473 219.814C205.143 219.814 205.708 220.267 205.879 220.883C206.126 220.931 206.373 220.977 206.62 221.023C206.874 220.591 207.341 220.3 207.878 220.3C208.587 220.3 209.179 220.806 209.311 221.477C209.537 221.512 209.764 221.543 209.99 221.576C210.233 221.107 210.721 220.787 211.285 220.787C211.981 220.787 212.563 221.274 212.709 221.925C212.949 221.952 213.188 221.98 213.428 222.005C213.68 221.569 214.151 221.274 214.691 221.274C215.325 221.274 215.863 221.677 216.065 222.241C216.279 222.257 216.492 222.274 216.706 222.289C216.894 221.7 217.445 221.274 218.096 221.274C218.799 221.274 219.387 221.77 219.525 222.432C219.708 222.439 219.89 222.443 220.072 222.449C220.205 221.779 220.794 221.274 221.503 221.274C222.226 221.274 222.825 221.8 222.941 222.49H223.472C223.588 221.8 224.187 221.274 224.91 221.274C225.633 221.274 226.232 221.8 226.348 222.49H226.878C226.994 221.8 227.593 221.274 228.315 221.274C229.039 221.274 229.638 221.8 229.754 222.49H230.284C230.4 221.8 230.999 221.274 231.722 221.274C232.445 221.274 233.044 221.8 233.16 222.49H233.69C233.807 221.8 234.405 221.274 235.128 221.274C235.851 221.274 236.45 221.8 236.566 222.49H237.097C237.213 221.8 237.811 221.274 238.534 221.274C239.257 221.274 239.857 221.8 239.973 222.49H240.503C240.619 221.8 241.217 221.274 241.94 221.274C242.664 221.274 243.263 221.8 243.379 222.49H243.909C244.025 221.8 244.624 221.274 245.347 221.274C246.07 221.274 246.669 221.8 246.785 222.49H247.314C247.431 221.8 248.029 221.274 248.752 221.274C249.475 221.274 250.074 221.8 250.19 222.49H250.721C250.837 221.8 251.435 221.274 252.158 221.274C252.881 221.274 253.481 221.8 253.597 222.49H254.127C254.243 221.8 254.842 221.274 255.564 221.274C256.288 221.274 256.887 221.8 257.003 222.49H257.533C257.649 221.8 258.248 221.274 258.971 221.274C259.694 221.274 260.293 221.8 260.409 222.49H260.94C261.057 221.8 261.655 221.274 262.378 221.274C263.101 221.274 263.7 221.8 263.816 222.49H264.346C264.462 221.8 265.06 221.274 265.783 221.274C266.506 221.274 267.106 221.8 267.222 222.49H267.752C267.868 221.8 268.467 221.274 269.189 221.274C269.913 221.274 270.512 221.8 270.628 222.49H271.158C271.274 221.8 271.873 221.274 272.596 221.274C273.319 221.274 273.918 221.8 274.034 222.49H274.564C274.681 221.8 275.279 221.274 276.002 221.274C276.725 221.274 277.324 221.8 277.44 222.49H277.97C278.086 221.8 278.684 221.274 279.407 221.274C280.13 221.274 280.73 221.8 280.846 222.49H281.376C281.492 221.8 282.091 221.274 282.813 221.274C283.537 221.274 284.136 221.8 284.252 222.49H284.635C284.685 222.49 284.734 222.488 284.784 222.488C284.901 221.799 285.499 221.274 286.221 221.274C286.913 221.274 287.492 221.755 287.643 222.402C287.834 222.391 288.025 222.378 288.216 222.365C288.379 221.737 288.947 221.274 289.626 221.274C290.207 221.274 290.708 221.613 290.943 222.104C291.16 222.078 291.377 222.05 291.593 222.021C291.701 221.322 292.303 220.787 293.032 220.787C293.598 220.787 294.088 221.109 294.33 221.579C294.559 221.535 294.787 221.489 295.016 221.443C295.161 220.789 295.742 220.3 296.439 220.3C296.903 220.3 297.316 220.516 297.583 220.852C297.722 220.816 297.861 220.781 298 220.745C298.212 220.201 298.739 219.814 299.358 219.814C299.683 219.814 299.982 219.921 300.225 220.1C300.443 220.032 300.661 219.962 300.879 219.89C301.056 219.284 301.615 218.841 302.278 218.841C302.587 218.841 302.874 218.937 303.11 219.101C303.321 219.021 303.53 218.939 303.739 218.857C303.739 218.852 303.738 218.847 303.738 218.841C303.738 218.035 304.391 217.382 305.197 217.381C305.596 217.381 305.958 217.542 306.222 217.801C306.373 217.732 306.524 217.663 306.675 217.592C306.665 217.523 306.658 217.453 306.658 217.381C306.658 216.575 307.311 215.922 308.117 215.921C308.529 215.921 308.902 216.093 309.167 216.368L309.598 216.153C309.586 216.077 309.577 216 309.577 215.921C309.577 215.115 310.23 214.462 311.036 214.461C311.449 214.461 311.821 214.633 312.087 214.909L322.524 209.69C324.964 208.47 327.608 207.724 330.314 207.487L166.729 205.977C166.005 205.97 165.326 205.757 164.752 205.392Z" fill="#9ABBFF"/>
<path d="M453.123 202.295C453.123 198.811 450.283 195.995 446.799 196.026L166.731 198.465C164.525 198.484 162.81 200.392 163.026 202.588C163.213 204.498 164.81 205.959 166.729 205.977L446.796 208.564C450.281 208.596 453.123 205.78 453.123 202.295Z" fill="#9ABBFF"/>
<path d="M357.008 9.09886C360.476 3.48688 366.736 0.221245 373.323 0.587614L408.128 2.52346L450.006 4.85271C452.034 4.96551 453.621 6.64298 453.621 8.67423C453.621 10.8431 451.821 12.5786 449.653 12.4991L376.733 9.82376C374.54 9.7433 372.487 10.8993 371.419 12.8163L370.189 15.0228C368.781 17.5488 370.608 20.6573 373.499 20.6573L359.919 26.983L349.734 20.8681L357.008 9.09886Z" fill="#9ABBFF"/>
<path d="M357.008 41.4934C360.476 47.1054 366.736 50.371 373.323 50.0047L408.128 48.0688L450.006 45.7396C452.034 45.6268 453.621 43.9493 453.621 41.9181C453.621 39.7492 451.821 38.0137 449.653 38.0932L376.733 40.7685C374.54 40.849 372.487 39.6929 371.419 37.776L370.189 35.5695C368.781 33.0435 370.608 29.935 373.499 29.935L359.919 23.6092L349.734 29.7241L357.008 41.4934Z" fill="#9ABBFF"/>
<path d="M163.123 25.2965C163.123 21.8118 165.964 18.9954 169.449 19.0258L449.826 21.4679C451.927 21.4862 453.621 23.195 453.621 25.2965C453.621 27.398 451.927 29.1067 449.826 29.125L169.449 31.5671C165.964 31.5975 163.123 28.7811 163.123 25.2965Z" fill="#9ABBFF"/>
<path d="M643.293 151.402H639.745V139.13H635.192V135.967H647.846V139.13H643.293V151.402ZM653.071 151.402H649.62V135.967H654.078L658.152 146.992L662.227 135.967H666.541V151.402H663.137V141.815L659.494 151.402H656.714L653.071 141.815V151.402Z" fill="black"/>
<path d="M0 55.9932H22.5V126.743C22.5 129.91 23 132.16 24 133.493C25.0833 134.827 26.7917 135.493 29.125 135.493C30.4583 135.493 31.75 135.285 33 134.868C34.25 134.368 35.25 133.827 36 133.243L34.75 150.618C33.1667 151.202 31.2917 151.66 29.125 151.993C27.0417 152.327 24.9167 152.493 22.75 152.493C15 152.493 9.25 150.702 5.5 147.118C1.83333 143.452 0 137.952 0 130.618V55.9932Z" fill="#246AFE"/>
<path d="M78.6953 83.4932H101.195V150.993H79.0703V142.743C77.237 145.91 74.6953 148.368 71.4453 150.118C68.2786 151.785 64.6536 152.618 60.5703 152.618C53.987 152.618 48.6536 150.41 44.5703 145.993C40.5703 141.493 38.5703 135.493 38.5703 127.993V83.4932H61.0703V125.743C61.0703 128.827 61.737 131.243 63.0703 132.993C64.4036 134.743 66.4453 135.618 69.1953 135.618C71.2786 135.618 73.1536 135.118 74.8203 134.118C76.487 133.035 77.7786 131.66 78.6953 129.993V83.4932Z" fill="#246AFE"/>
<path d="M109.144 83.4932H131.269V91.8682C133.102 88.7015 135.602 86.2432 138.769 84.4932C141.935 82.7432 145.56 81.8682 149.644 81.8682C153.894 81.8682 157.602 82.9098 160.769 84.9932C163.935 86.9932 166.352 89.8682 168.019 93.6182C169.935 89.9515 172.685 87.0765 176.269 84.9932C179.935 82.9098 184.019 81.8682 188.519 81.8682C194.769 81.8682 199.769 84.1182 203.519 88.6182C207.352 93.0348 209.269 98.9932 209.269 106.493V150.993H186.769V108.743C186.769 105.576 186.144 103.16 184.894 101.493C183.727 99.7432 181.894 98.8682 179.394 98.8682C177.394 98.8682 175.644 99.4098 174.144 100.493C172.644 101.493 171.435 102.827 170.519 104.493V150.993H148.019V108.743C148.019 105.576 147.394 103.16 146.144 101.493C144.977 99.7432 143.144 98.8682 140.644 98.8682C138.56 98.8682 136.769 99.4098 135.269 100.493C133.769 101.493 132.56 102.868 131.644 104.618V150.993H109.144V83.4932Z" fill="#246AFE"/>
<path d="M216.937 83.4932H239.437V150.993H216.937V83.4932Z" fill="#246AFE"/>
<path d="M247.581 83.4932H269.706V91.8682C271.539 88.7015 274.039 86.2432 277.206 84.4932C280.456 82.7432 284.123 81.8682 288.206 81.8682C294.873 81.8682 300.206 84.1182 304.206 88.6182C308.289 93.0348 310.331 98.9932 310.331 106.493V150.993H287.831V108.743C287.831 105.576 287.164 103.16 285.831 101.493C284.498 99.7432 282.456 98.8682 279.706 98.8682C277.623 98.8682 275.748 99.4098 274.081 100.493C272.414 101.493 271.081 102.868 270.081 104.618V150.993H247.581V83.4932Z" fill="#246AFE"/>
<path d="M376.151 139.243C376.151 141.16 376.276 143.285 376.526 145.618C376.776 147.868 377.068 149.66 377.401 150.993H356.276C355.86 150.077 355.526 148.827 355.276 147.243C355.026 145.66 354.818 144.077 354.651 142.493C352.818 145.91 350.235 148.452 346.901 150.118C343.651 151.785 339.901 152.618 335.651 152.618C329.651 152.618 324.776 150.827 321.026 147.243C317.276 143.577 315.401 138.702 315.401 132.618C315.401 125.868 318.276 120.41 324.026 116.243C329.86 111.993 338.276 109.327 349.276 108.243L353.651 107.868C353.068 101.285 348.776 97.9932 340.776 97.9932C337.693 97.9932 334.443 98.5348 331.026 99.6182C327.61 100.702 324.401 102.41 321.401 104.743L320.151 87.4932C323.568 85.7432 327.401 84.3682 331.651 83.3682C335.985 82.3682 340.318 81.8682 344.651 81.8682C354.901 81.8682 362.693 84.3265 368.026 89.2432C373.443 94.0765 376.151 101.118 376.151 110.368V139.243ZM337.526 130.368C337.526 132.618 338.151 134.41 339.401 135.743C340.735 137.077 342.443 137.743 344.526 137.743C346.276 137.743 347.985 137.285 349.651 136.368C351.318 135.368 352.651 133.993 353.651 132.243V119.743L352.651 119.868C347.235 120.452 343.36 121.66 341.026 123.493C338.693 125.243 337.526 127.535 337.526 130.368Z" fill="#246AFE"/>
<path d="M401.745 150.993H387.665V85.0729H401.233L401.745 95.5689C405.201 89.0409 412.113 83.5369 422.737 83.5369C438.737 83.5369 445.521 93.5209 445.521 108.497V150.993H431.569V111.953C431.569 101.201 427.601 95.1849 418.001 95.1849C408.273 95.1849 401.745 102.353 401.745 114.129V150.993Z" fill="black"/>
<path d="M476.317 152.657C460.957 152.657 453.533 142.929 453.533 127.441V85.0729H467.741V124.753C467.741 134.865 471.453 140.881 480.925 140.881C490.653 140.881 496.413 133.457 496.413 121.681V85.0729H510.621V150.993H496.925L496.669 141.009C492.829 147.409 485.789 152.657 476.317 152.657Z" fill="black"/>
<path d="M548.35 152.657C533.886 152.657 526.718 146.001 526.718 133.201V95.6969H513.918V85.0729H526.718V64.4649H540.798V85.0729H558.718V95.6969H540.798V131.665C540.798 138.193 543.23 141.137 551.038 141.137C553.854 141.137 557.182 140.497 559.102 139.857V151.121C556.158 152.017 551.678 152.657 548.35 152.657Z" fill="black"/>
<path d="M578.885 150.993H564.805V85.0729H578.373L578.757 97.8729C582.341 89.4249 589.253 83.7929 598.725 83.7929C599.749 83.7929 601.157 83.9209 602.309 84.1769V97.8729C601.029 97.7449 599.493 97.6169 597.957 97.6169C586.053 97.6169 578.885 104.401 578.885 117.457V150.993Z" fill="black"/>
<path d="M621.024 60.2729V74.4729H606.304V60.2729H621.024ZM606.56 85.0729H620.64V150.993H606.56V85.0729Z" fill="black"/>
<path d="M217.493 68.9369C217.29 68.8353 217.29 68.5455 217.493 68.444L219.828 67.2764C223.051 65.6648 225.665 63.0511 227.277 59.8277L228.159 58.0639C228.378 57.6254 229.004 57.6254 229.223 58.0639L230.105 59.8277C231.716 63.0511 234.33 65.6648 237.553 67.2764L239.317 68.1584C239.756 68.3776 239.756 69.0033 239.317 69.2225L237.553 70.1044C234.33 71.7161 231.716 74.3298 230.105 77.5531L229.223 79.317C229.004 79.7554 228.378 79.7554 228.159 79.317L227.277 77.5531C225.665 74.3298 223.051 71.7161 219.828 70.1044L217.493 68.9369Z" fill="url(#paint0_linear_548_121)"/>
<defs>
<linearGradient id="paint0_linear_548_121" x1="222.845" y1="62.8451" x2="234.536" y2="74.5358" gradientUnits="userSpaceOnUse">
<stop stop-color="#9ABBFF"/>
<stop offset="1" stop-color="#246AFE"/>
</linearGradient>
</defs>
</svg>
