<svg width="215" height="215" viewBox="0 0 215 215" fill="none" xmlns="http://www.w3.org/2000/svg">
<rect width="215" height="215" rx="50" fill="white"/>
<path d="M44 59H66.5V129.75C66.5 132.917 67 135.167 68 136.5C69.0833 137.833 70.7917 138.5 73.125 138.5C74.4583 138.5 75.75 138.292 77 137.875C78.25 137.375 79.25 136.833 80 136.25L78.75 153.625C77.1667 154.208 75.2917 154.667 73.125 155C71.0417 155.333 68.9167 155.5 66.75 155.5C59 155.5 53.25 153.708 49.5 150.125C45.8333 146.458 44 140.958 44 133.625V59Z" fill="#246AFE"/>
<path d="M103.08 155.721H89V89.8006H102.568L103.08 100.297C106.536 93.7686 113.448 88.2646 124.072 88.2646C140.072 88.2646 146.856 98.2486 146.856 113.225V155.721H132.904V116.681C132.904 105.929 128.936 99.9126 119.336 99.9126C109.608 99.9126 103.08 107.081 103.08 118.857V155.721Z" fill="black"/>
<path d="M147.493 70.9374C147.29 70.8358 147.29 70.546 147.493 70.4445L149.828 69.2769C153.051 67.6652 155.665 65.0516 157.277 61.8282L158.159 60.0643C158.378 59.6259 159.004 59.6259 159.223 60.0643L160.105 61.8282C161.716 65.0516 164.33 67.6652 167.553 69.2769L169.317 70.1589C169.756 70.3781 169.756 71.0038 169.317 71.223L167.553 72.1049C164.33 73.7166 161.716 76.3303 160.105 79.5536L159.223 81.3175C159.004 81.7559 158.378 81.7559 158.159 81.3175L157.277 79.5536C155.665 76.3303 153.051 73.7166 149.828 72.1049L147.493 70.9374Z" fill="url(#paint0_linear_568_57)"/>
<defs>
<linearGradient id="paint0_linear_568_57" x1="152.845" y1="64.8456" x2="164.536" y2="76.5363" gradientUnits="userSpaceOnUse">
<stop stop-color="#9ABBFF"/>
<stop offset="1" stop-color="#246AFE"/>
</linearGradient>
</defs>
</svg>
