<svg width="1264" height="1187" viewBox="0 0 1264 1187" fill="none" xmlns="http://www.w3.org/2000/svg">
<circle cx="584" cy="584" r="584" fill="#78CBF7"/>
<path d="M313.999 477.677C324.118 333.512 443.732 221.564 588.25 221C732.795 221.564 852.457 333.481 862.677 477.665L870.285 585L908.85 882.786C912.994 914.792 893.734 945.204 863.028 955.138L597.439 1041.06C583.529 1045.56 568.529 1045.39 554.726 1040.57L312.304 955.916C282.401 945.473 263.896 915.517 267.942 884.103L306.465 585L313.999 477.677Z" fill="black"/>
<path d="M803.584 588.673C803.584 707.365 707.364 803.585 588.672 803.585C469.979 803.585 373.76 707.365 373.76 588.673C373.76 384.98 469.979 331 588.672 331C707.364 331 803.584 384.98 803.584 588.673Z" fill="#FFC49B"/>
<path d="M588.672 868.992C690.277 868.992 787.721 909.354 859.567 981.2C883.617 1005.25 904.138 1032.17 920.8 1061.15C825.626 1128.45 709.432 1168 584 1168C461.497 1168 347.805 1130.28 253.901 1065.82C271.018 1035.06 292.439 1006.54 317.776 981.2C389.622 909.354 487.066 868.992 588.672 868.992Z" fill="#0A6DA3"/>
<ellipse cx="381" cy="605.5" rx="41" ry="50.5" fill="#FFC49A"/>
<ellipse cx="804" cy="605.5" rx="41" ry="50.5" fill="#FFC49A"/>
<path d="M499 763H668V913C668 954.421 634.421 988 593 988H574C532.579 988 499 954.421 499 913V763Z" fill="#FFC49A"/>
<path d="M755.5 908.5C755.5 942.189 675.784 991 583 991C490.216 991 419 942.189 419 908.5C451.5 892.5 490.216 869 583 869C675.784 869 717.5 891.5 755.5 908.5Z" fill="#FFC49A"/>
<path d="M501.369 788C502.347 788.125 504.558 788.377 506.528 788.753C508.618 789.151 510.831 789.381 512.557 789.823C514.596 790.345 516.367 790.513 518.277 791.017C519.843 791.43 521.777 792.023 523.813 792.526C525.612 792.972 527.564 793.532 530.574 793.723C532.628 793.853 534.576 794.287 537.953 794.477C540.495 794.621 542.695 795.042 545.092 795.232C547.863 795.453 551.552 795.796 557.318 795.987C558.942 796.041 562.11 796.302 566.72 796.364C569.265 796.399 572.325 796.679 576.014 796.742C581.062 796.827 587.718 797.306 594.404 797.496C596.215 797.548 602.916 797.811 612.754 797.749C618.597 797.712 622.039 797.185 624.374 796.744C627.288 796.192 629.538 796.302 631.756 795.989C634.326 795.626 636.063 795.298 638.336 794.857C640.827 794.373 642.824 794.166 645.778 793.976C647.651 793.855 649.592 793.411 651.502 793.221C653.211 793.05 656.102 792.528 658.269 792.153C660.42 791.774 662.269 791.649 663.005 791.398C663.376 791.272 663.742 791.147 664.856 791.019" stroke="#E99672" stroke-width="5" stroke-linecap="round"/>
<path d="M501 789.132C501.734 789.634 503.207 790.385 504.991 791.392C506.683 792.348 509.104 793.653 510.959 794.726C512.373 795.545 513.909 796.173 515.387 796.99C516.817 797.781 518.581 798.687 520.491 799.632C522.006 800.382 523.748 801.328 525.351 802.023C528.707 803.476 533.712 806.611 535.316 807.557C536.724 808.387 538.51 809.253 541.032 810.574C543.213 811.716 545.647 813.027 547.431 813.721C549.259 814.432 551.913 815.54 554.194 816.549C557.988 818.228 559.671 819.064 561.761 819.759C564.088 820.532 567.413 822.083 569.635 823.029C573.019 824.468 578.241 826.363 580.95 827.493C584.328 828.902 589.312 830.763 591.715 831.457C594.929 832.386 599.277 834.159 601.312 834.853C604.153 835.823 608.259 837.057 610.352 837.808C613.144 838.81 616.371 839.691 621.657 841.453C625.079 842.594 627.324 843.216 629.359 843.848C631.019 844.363 633.472 845.103 636.552 846.361C638.472 847.145 641.222 847.993 643.199 848.754C645.351 849.582 647.378 850.137 649.594 850.64C651.382 851.047 653.039 852.023 654.823 852.527C656.422 852.979 657.837 854.159 659.621 854.854C660.42 855.291 661.162 855.797 661.959 856.237C662.391 856.427 662.878 856.552 663.749 857.057" stroke="#E99672" stroke-width="5" stroke-linecap="round"/>
<path d="M665.594 856.681C665.472 855.805 665.225 847.571 665.531 842.099C665.708 838.948 665.963 835.948 666.269 831.735C666.681 826.076 666.454 821.842 666.638 817.352C666.802 813.362 666.701 805.887 666.64 801.789C666.332 796.057 666.21 794.419 665.965 793.604C665.841 793.163 665.719 792.664 665.594 791.396" stroke="#E99672" stroke-width="5" stroke-linecap="round"/>
<path d="M665.133 794.373C664.961 795.169 664.266 796.947 663.222 800.545C662.75 802.17 662.349 803.446 661.958 804.428C661.511 805.549 661.216 801.945 660.999 800.697C660.693 798.932 661.911 797.315 662.043 795.581C662.073 795.176 662.172 794.912 662.044 794.776C661.291 793.975 655.263 796.408 650.607 797.53C648.533 798.03 647.121 798.287 640.224 798.422C637.025 798.485 634.066 798.821 631.503 798.956C629.875 799.042 628.321 799.355 625.541 799.49C623.1 799.609 619.965 799.889 616.536 800.024C614.56 800.102 612.31 800.423 610.61 800.558C609.074 800.68 607.693 800.957 606.214 801.092C604.809 801.22 602.909 801.491 599.693 801.626C597.846 801.704 596.12 802.025 594.378 802.16C593.939 802.194 593.509 802.292 590.358 802.338C587.206 802.383 581.347 802.383 578.199 802.339C573.832 802.278 571.92 801.94 570.875 801.805C569.712 801.655 567.664 801.315 566.045 801.093C564.185 800.839 562.437 800.781 561.084 800.559C559.212 800.426 555.235 800.247 552.426 800.025C551.903 799.98 551.214 799.98 550.504 799.98" stroke="#E99672" stroke-width="5" stroke-linecap="round"/>
<path d="M513.948 792.771C514.468 792.771 515.682 792.947 517.119 793.26C518.618 793.585 522.79 793.572 526.166 793.794C530.996 794.111 533.6 794.106 536.348 794.328C541.349 794.731 542.749 794.816 544.232 794.951C545.723 795.087 547.104 795.35 548.279 795.529C550.038 795.797 551.194 796.418 553.455 797.04C555.083 797.488 556.243 798.196 558.242 798.909C560.169 799.597 562.244 799.98 563.685 800.202C565.371 800.461 569.874 800.514 572.738 800.248C574.21 800.112 575.738 799.537 577.002 799.358C580.336 798.886 585.739 799.264 587.533 799.712C589.635 800.236 590.883 800.247 592.32 800.469C592.713 800.514 593.144 800.514 593.538 800.558C593.933 800.602 594.277 800.69 595.155 800.781" stroke="#E99672" stroke-width="5" stroke-linecap="round"/>
<path d="M522.304 794.907C522.302 794.995 523.343 795.35 524.518 795.972C526.123 796.822 527.26 796.952 528.523 797.53C529.609 798.028 530.655 798.554 531.873 799.043C534.067 799.923 535.527 800.69 539.089 802.42C539.89 802.81 540.227 803.002 540.146 803.093C539.093 804.275 537.021 802.474 535.669 802.117C534.191 801.727 531.287 800.167 529.36 799.226C528.102 798.612 526.837 798.026 525.486 797.135C524.469 796.465 523.354 796.066 522.308 795.488C521.182 794.865 519.785 794.907 518.959 794.863C518.21 794.823 520.623 794.64 525.016 794.684C527.087 794.705 530.542 794.907 535.715 795.039C540.622 795.165 541.794 795.884 543.579 796.197C544.832 796.416 546.577 796.509 548.883 796.907C553.478 797.7 555.633 799.088 556.984 799.445C558.092 799.737 558.858 800.068 558.861 800.202C558.947 803.131 553.037 799.713 548.741 799.27C543.569 798.736 541.809 798.912 540.326 798.646C539.018 798.29 537.804 797.935 535.765 797.622C534.597 797.577 532.529 797.577 530.399 797.577" stroke="#E99672" stroke-width="5" stroke-linecap="round"/>
<path d="M540.06 800.781C541.955 801.309 543.621 801.846 544.924 802.335C546.048 802.756 549.689 803.534 554.605 804.468C558.558 805.22 562.071 805.587 565.33 806.03C568.322 806.437 573.007 806.388 576.345 806.166C580.26 805.906 583.728 805.854 587.393 805.632C590.413 805.45 592.799 805.499 594.918 805.365C602.36 804.896 603.938 805.587 605.677 805.808C607.393 806.027 609.075 805.942 611.712 806.075C620.991 806.545 622.216 805.854 623.914 805.632C627.504 805.163 632.4 804.519 634.831 803.855C640.812 802.223 645.367 801.582 646.85 801.316C648.75 800.976 651.545 800.872 653.94 800.737C655.242 800.663 656.25 800.247 657.296 800.025C657.817 799.98 658.342 799.892 658.862 799.714C659.125 799.625 659.383 799.537 659.911 799.446" stroke="#E99672" stroke-width="5" stroke-linecap="round"/>
<path d="M661.478 796.242C660.353 796.242 658.267 796.594 655.576 797.04C654.185 797.271 651.864 797.833 647.865 798.502C643.866 799.171 638.265 799.964 635.165 800.372C631.64 800.837 630.241 800.957 628.59 801.224C624.097 801.95 617.099 803.093 615.744 803.449C613.843 803.949 611.438 804.962 606.796 806.515C602.674 807.893 600.822 807.632 598.819 807.767C597.771 807.837 594.142 807.99 589.313 807.946C586.544 807.723 585.236 807.635 584.629 807.501C584.28 807.456 583.849 807.456 583.405 807.456" stroke="#E99672" stroke-width="5" stroke-linecap="round"/>
<path d="M535.621 806.121C537.271 806.297 539.867 807.183 542.533 807.987C544.111 808.463 545.794 808.967 548.709 809.767C551.097 810.422 554.578 811.632 556.288 812.304C557.834 812.913 559.55 813.682 561.03 814.173C563.371 814.95 565.816 815.818 568.078 816.531C570.026 817.145 571.911 817.954 573.302 818.224C575.254 818.602 576.611 819.113 577.959 819.513C579.679 820.024 581.05 820.448 583.179 821.248C584.573 821.771 585.922 822.936 587.316 824.006C588.711 825.075 590.1 826.14 592.535 828.495C593.7 829.622 596.267 830.674 598.933 831.706C600.917 832.474 603.761 833.173 605.463 833.664C607.508 834.255 608.728 834.599 609.817 834.778C611.246 835.013 612.728 835.667 614.471 836.245C616.011 836.756 617.428 837.002 618.997 837.58C620.935 838.294 623.256 838.604 626.473 839.27C631.68 840.348 633.617 840.74 634.84 841.052C635.863 841.313 636.928 841.717 637.974 842.12C639.052 842.536 640.323 842.876 643.145 844.163C644.772 844.905 645.806 845.279 646.852 845.679C647.966 846.106 649.112 846.614 650.246 846.97C651.482 847.359 652.856 847.949 653.945 848.128C655.295 848.35 656.25 849.017 657.946 849.817C659.364 850.485 660.778 851.153 661.43 851.42C661.726 851.541 661.995 851.511 662.128 851.202C662.854 849.52 662.522 847.783 662.739 846.133C663.082 843.523 663.045 840.147 662.828 837.81C662.754 837.015 662.697 836.206 662.567 833.073C662.451 830.294 662.522 825.094 662.479 822.284C662.421 818.49 662.089 817.073 661.957 815.516C661.832 814.034 661.567 812.801 661.435 809.649C661.217 807.549 661.131 806.39 661 805.593C660.956 805.061 660.956 804.268 660.956 803.451" stroke="#E99672" stroke-width="5" stroke-linecap="round"/>
<path d="M665.916 805.053C665.916 806.204 665.744 808.161 665.179 810.473C664.786 812.08 664.611 813.677 664.351 815.371C664.141 816.737 663.827 818.659 663.611 820.045C663.48 821.337 663.305 822.314 663.262 823.158C663.219 823.561 663.133 823.914 663.044 824.811" stroke="#E99672" stroke-width="5" stroke-linecap="round"/>
<path d="M657.039 801.849C657.039 804.338 657.901 809.106 659.08 814.066C660.235 818.927 660.695 822.405 660.738 822.938C660.782 823.485 660.956 825.858 660.999 829.194C661.018 830.686 661.217 834.565 661.174 840.17C661.149 843.325 660.783 845.274 660.392 846.656C660.213 847.286 659.739 847.77 659.392 847.907C657.471 848.66 656.444 840.164 655.431 836.344C654.661 833.443 653.906 829.537 653.689 827.537C653.389 824.774 653.731 822.59 653.861 820.161C654.4 810.143 654.167 809.063 654.383 807.95C654.511 807.297 654.514 806.658 654.645 805.729C654.737 805.069 654.689 804.006 655.378 805.62C656.068 807.235 657.446 811.552 658.243 814.305C659.335 818.08 659.389 819.645 659.432 820.577C659.627 824.786 659.305 830.856 658.394 833.649C656.018 840.932 655.561 841.894 655.256 842.479C654.21 844.479 654.95 836.143 654.733 832.3C654.507 828.292 654.428 825.276 654.211 822.73C653.89 818.954 654.6 817.698 654.732 816.14C654.903 814.117 655.211 813.068 655.428 811.645C655.697 809.878 655.733 807.387 655.95 805.237C655.995 804.792 655.995 804.263 656.038 807.559C656.081 810.855 656.167 817.992 656.168 821.801C656.17 826.682 655.733 828.277 655.474 829.39C655.106 830.965 654.689 832.725 654.039 835.215C653.652 836.697 653.472 838.332 653.167 839.714C653.098 840.023 653.122 840.292 653.036 840.252C651.836 839.694 652.078 837.632 651.861 836.299C651.648 834.99 651.731 833.716 651.6 831.859C651.334 828.073 651.642 824.907 651.772 822.914C651.977 819.782 651.903 817.34 652.033 815.174C652.481 807.74 651.817 805.603 651.6 803.591C651.547 803.102 651.556 802.485 651.599 802.343C652.191 800.396 654.245 811.328 654.732 814.925C654.852 815.815 654.95 816.884 654.993 818.039C655.03 819.025 655.211 822.907 655.168 828.422C655.138 832.288 654.778 834.236 654.603 836.107C654.389 838.387 653.561 840.286 652.907 841.982C652.22 843.763 652.167 845.274 651.861 846.788C651.773 847.227 651.817 847.762 651.774 847.903C651.72 848.076 651.556 844.863 651.513 840.638C651.473 836.745 651.122 833.184 650.99 831.315C650.882 829.786 650.428 826.968 649.558 823.184C647.784 815.464 647.989 813.426 647.986 810.715C647.986 810.122 648.245 809.864 648.42 809.86C649.861 809.827 649.9 813.586 650.942 817.497C651.874 820.995 651.728 822.846 651.86 824.316C652.063 826.583 651.906 829.078 651.557 830.147C651.469 830.415 651.383 830.68 651.21 830.596C649.729 829.879 649.3 825.463 648.126 820.089C647.571 817.55 647.383 815.333 647.25 812.832C646.972 807.606 647.203 804.522 647.506 804.121C647.661 803.916 648.067 803.985 648.374 804.117C650.365 804.975 651.462 810.105 652.25 815.218C653.616 824.074 652.078 825.607 651.644 827.563C651.293 829.148 651.033 830.947 650.34 832.947C649.481 835.426 647.816 838.423 647.162 839.492C647.007 839.747 646.944 840.025 646.857 840.293C646.769 840.561 646.683 840.826 646.639 840.345C646.307 836.757 646.333 832.672 646.117 827.684C645.871 822.04 645.986 817.698 645.855 815.661C645.502 810.139 645.55 808.887 645.333 807.727C645.235 807.202 645.203 806.482 645.029 805.682C644.892 805.049 645.801 808.839 647.41 815.289C648.467 819.521 649.028 823.097 649.249 825.827C649.404 827.749 649.639 829.521 649.685 836.709C649.702 839.412 649.294 840.826 648.989 842.205C648.901 842.599 648.944 843.047 648.772 843.23C648.6 843.413 648.255 843.325 647.991 843.103C646.899 842.186 646.339 839.955 644.816 836.396C643.04 832.244 643.116 829.185 642.896 826.202C642.694 823.48 642.505 821.175 642.374 818.945C642.252 816.886 641.983 815.295 641.851 813.249C641.747 811.633 641.461 809.864 641.329 808.574C641.196 807.271 640.939 805.683 640.807 803.814C640.775 803.365 640.678 803.013 640.676 803.052C640.605 805.159 641.372 808.513 641.806 813.261C642.22 817.797 641.981 821.156 642.111 822.707C642.451 826.75 642.417 829.249 642.633 832.009C642.85 834.767 642.939 836.73 643.156 838.554C643.224 839.131 643.2 839.838 643.071 839.716C642.235 838.931 642.244 837.275 641.466 835.023C639.644 829.749 638.675 825.441 638.458 824.065C637.774 819.718 636.672 814.403 636.239 812.271C635.793 810.08 635.889 807.299 635.975 804.36C636.002 803.445 636.233 803.713 636.581 804.29C638.177 806.94 638.583 808.604 640.061 816.37C640.611 819.258 640.761 820.71 640.591 822.894C640.47 824.456 638.766 818.157 637.811 813.632C636.079 805.433 636.586 803.9 636.455 803.63C636.414 803.545 636.411 804.241 636.799 807.069C637.187 809.897 637.962 815.007 638.362 817.992C639.021 822.916 639.022 825.244 639.239 826.942C639.431 828.449 639.544 831.289 639.761 833.394C639.93 835.039 640.067 836.111 639.894 836.556C639.823 836.742 639.377 836.474 639.027 836.163C638.264 835.484 636.254 831.345 633.255 824.638C630.838 819.232 630.147 815.389 629.669 813.521C629.248 811.875 628.319 811.373 627.798 811.151C627.528 811.036 627.277 810.842 627.575 810.663C629.686 809.394 631.356 809.95 634.007 809.903C635.466 809.877 636.408 810.214 636.412 810.348C636.443 811.402 631.912 809.953 627.52 809.285C625.126 808.921 623.71 808.97 619.047 809.057C615.07 809.131 607.835 809.672 603.847 809.943C599.34 810.25 595.967 810.393 591.4 810.437C586.899 810.481 582.543 810.836 580.757 810.971C578.619 811.133 573.78 811.723 570.357 812.039C566.723 812.375 561.999 812.086 559.653 811.951C558.24 811.87 557.038 811.552 555.775 811.151C554.602 810.779 553.471 809.688 552.12 808.794C550.81 807.927 549.204 807.104 546.858 806.213C545.458 805.682 544.243 805.144 542.547 804.566C542.152 804.431 541.893 804.343 542.492 804.298C546.4 804.002 548.316 804.519 551.229 804.741C557.015 805.181 558.594 805.32 560.29 805.763C561.61 806.108 563.722 806.474 566.934 806.877C572.242 807.543 577.384 806.658 579.949 806.257C582.77 805.817 585.4 805.587 587.183 805.366C589.652 805.059 592.612 805.053 594.844 805.275C595.581 805.348 596.8 805.496 598.364 805.763C599.57 805.969 603.994 806.735 610.558 808.291C616.962 809.808 619.862 810.746 622.172 810.971C625.33 811.279 630.223 810.842 631.446 810.616C633.914 810.161 637.45 807.905 638.582 807.369C638.936 807.202 639.362 806.927 639.713 806.747C640.306 806.443 635.677 806.388 627.934 806.432C624.497 806.452 623.274 806.655 621.24 806.831C614.879 807.382 611.976 808.076 608.439 808.301C606.466 808.427 603.704 808.877 601.428 809.102C599.68 809.276 597.777 809.501 592.868 809.636C591.765 809.666 591.249 809.768 588.613 809.814C585.977 809.859 581.238 809.859 578.624 809.815C575.663 809.765 571.864 809.592 566.297 809.636C563.484 809.658 559.933 809.859 555.883 809.859C554.677 809.859 555.194 809.859 555.934 810.035C559.09 810.787 561.628 811.899 563.338 812.749C563.955 813.056 564.688 813.239 565.297 813.639C566.426 814.379 566.605 816.171 567.213 817.553C567.736 818.74 569.211 819.29 570.995 820.402C572.442 821.303 574.261 822.227 575.652 822.762C577.486 823.467 579.389 823.829 581.007 824.054C582.46 824.257 584.528 824.544 590.822 825.74C594.763 826.489 599.234 827.834 600.807 828.059C602.814 828.347 607.13 828.549 609.773 828.815C610.905 829.083 611.95 829.171 612.644 829.305C612.994 829.35 613.339 829.35 613.694 829.35" stroke="#E99672" stroke-width="5" stroke-linecap="round"/>
<path d="M572.438 813.864C572.438 814.04 574.076 814.659 580.563 816.077C585.382 817.13 593.427 818.2 599.106 818.835C604.785 819.471 607.887 819.471 610.261 819.647C614.209 819.94 616.3 820.715 618.075 821.158C623.619 822.543 625.089 822.317 626.484 822.452C626.834 822.496 627.178 822.584 628.39 822.629C629.602 822.675 631.67 822.675 633.8 822.675" stroke="#E99672" stroke-width="5" stroke-linecap="round"/>
<path d="M627.795 816.801C627.622 816.801 623.398 816.801 616.7 816.713C611.939 816.65 610.394 816.091 609.087 815.912C607.054 815.634 605.694 815.29 604.213 815.155C601.865 814.941 599.427 814.756 597.947 814.443C596.116 814.31 594.9 814.131 593.637 813.865C593.33 813.776 593.072 813.688 592.283 813.063" stroke="#E99672" stroke-width="32" stroke-linecap="round"/>
<path d="M601.944 816C603.498 816.708 606.639 817.602 608.205 818.089C609.753 818.571 611.506 819.022 613.124 819.47C614.308 819.797 615.517 820.357 617.037 821.069C620.546 822.712 621.523 823.385 622.655 823.698C624.091 824.094 626.212 824.01 628.869 824.232C632.019 824.277 634.32 824.365 635.315 824.499C636.051 824.544 637.257 824.544 638.5 824.811" stroke="#E99672" stroke-width="32" stroke-linecap="round"/>
<path d="M502.034 785.699C501.942 785.673 501.706 785.62 501.475 785.587C501.076 785.53 500.837 785.515 500.586 785.495C500.396 785.48 500.165 785.396 499.947 785.376C499.86 785.368 499.782 785.33 499.71 785.337C499.511 785.354 499.492 785.659 499.433 785.895C499.333 786.292 499.387 786.541 499.406 786.719C499.431 786.942 499.899 786.411 500.058 786.318C500.235 786.214 500.347 786.055 500.492 785.969C500.662 785.868 500.848 785.791 501.012 785.739C501.223 785.671 501.44 785.673 501.631 785.672C501.814 785.672 501.98 785.83 502.158 785.896C502.344 785.965 502.507 786.002 502.665 786.054C502.869 786.122 503.1 786.107 503.14 786.12C503.309 786.177 502.706 785.989 502.384 785.831C502.272 785.765 502.192 785.725 502.113 785.699C502.074 785.686 502.035 785.673 501.994 785.659" stroke="#E99672" stroke-linecap="round"/>
<path d="M498.359 785.501C498.359 785.789 498.385 786.396 498.438 786.6C498.49 786.802 498.504 787.068 498.524 787.279C498.534 787.385 498.557 787.985 498.563 788.834C498.567 789.269 498.623 789.478 498.642 789.846C498.649 789.926 498.662 789.966 498.669 790.025C498.675 790.084 498.675 790.162 498.675 790.243" stroke="black" stroke-linecap="round"/>
<path d="M498.478 788.307C498.517 788.162 498.543 787.926 498.563 787.721C498.582 787.526 498.636 787.241 498.668 786.99C498.688 786.727 498.728 786.582 498.747 786.301C498.754 786.084 498.754 785.719 498.715 785.304" stroke="black" stroke-linecap="round"/>
<path d="M669.586 843.215C669.351 843.075 669.069 842.512 668.997 841.571C668.965 841.143 668.88 839.045 668.903 836.056C668.911 834.978 668.973 834.792 668.997 833.508C669.065 829.847 668.974 827.211 668.904 826.533C668.672 824.304 669.021 823.076 669.138 821.895C669.338 819.877 668.928 819.116 668.856 817.893C668.828 817.417 668.738 816.251 668.762 814.698C668.772 813.981 668.88 812.628 668.903 810.722C668.933 808.25 668.928 804.945 668.856 803.911C668.772 802.687 668.831 800.898 668.903 800.026C669.065 798.04 668.928 794.918 668.856 793.649C668.833 793.363 668.786 793.224 668.762 792.965C668.738 792.707 668.738 792.334 668.738 791.95" stroke="black" stroke-linecap="round"/>
<path d="M660.647 857.292C660.714 857.372 660.849 857.507 661.071 857.75C661.676 858.409 661.929 858.48 662.105 858.581C662.266 858.674 662.47 858.696 662.632 858.75C662.791 858.803 662.983 858.818 663.199 858.872C663.403 858.923 663.644 859.033 663.847 859.115C664.016 859.182 664.198 859.304 664.374 859.358C664.554 859.413 664.846 859.56 665.063 859.642C665.223 859.702 665.414 859.75 665.63 859.804C665.846 859.858 666.035 859.912 666.231 860C666.395 860.073 666.589 860.114 666.765 860.175C666.939 860.235 667.115 860.317 667.292 860.371C667.373 860.396 667.454 860.425 667.528 860.419C667.724 860.402 667.657 860.035 667.69 859.591C667.8 858.147 667.657 857.955 667.657 857.813C667.657 857.712 667.616 858.155 667.583 858.371C667.537 858.666 667.535 858.884 667.495 859.114C667.459 859.318 667.441 859.439 667.401 859.513C667.38 859.551 667.333 859.574 667.286 859.568C667.02 859.532 666.78 859.305 666.503 859.17C666.405 859.122 666.307 859.102 666.246 859.075C666.108 859.014 666.629 858.967 666.819 858.919C666.872 858.906 666.94 858.913 666.947 858.926C667.032 859.073 666.645 859.101 666.322 859.149C665.665 859.245 665.47 859.021 665.294 858.893C665.043 858.709 664.849 858.442 664.619 858.171C664.369 857.876 664.2 857.617 664.072 857.394C663.887 857.074 663.754 856.928 663.545 856.598C663.165 855.998 662.998 855.457 662.883 855.192C662.809 855.023 662.674 854.648 662.626 854.375C662.579 854.108 662.619 853.727 662.68 853.524C662.713 853.412 662.794 853.335 662.875 853.288C662.914 853.265 662.956 853.254 662.977 853.267C663.094 853.342 663.038 853.603 663.018 853.779C663.009 853.852 662.742 853.633 662.332 853.183C662.087 852.914 661.801 852.532 661.603 852.279C661.404 852.026 661.311 851.905 660.534 851.081C659.757 850.257 658.299 848.733 657.515 847.921C656.672 847.048 656.555 846.96 656.468 846.879C656.373 846.791 655.897 846.343 655.222 845.714C654.868 845.501 654.732 845.474 654.651 845.427C654.61 845.407 654.57 845.393 654.488 845.379" stroke="#E99672" stroke-linecap="round"/>
<path d="M1263.41 1185.53H1262.05" stroke="#E99672" stroke-linecap="round"/>
<path d="M504.871 747.146C505.039 748.665 505.379 751.361 506.306 753.74C507.151 755.911 507.745 758.642 508.507 760.848C509.289 763.114 510.624 764.405 510.543 764.999C510.414 765.941 508.431 764.075 507.669 764.154C504.387 764.493 508.253 769.813 509.014 772.019C509.397 773.127 510.116 774.053 510.37 774.479C509.954 772.372 508.598 770.509 507.839 769.496C507.415 768.985 506.912 768.483 505.887 767.965" stroke="#FFC49A" stroke-width="30" stroke-linecap="round"/>
<path d="M503.069 763.423C503.069 764.733 503.27 767.576 503.323 771.426C503.349 773.297 502.664 774.381 502.662 774.988C502.658 776.497 505.194 776.412 506.666 777.626C507.983 778.713 509.456 779.657 510.726 780.217C512.288 780.907 513.719 781.484 514.938 781.944C516.088 782.377 517.372 782.501 519.4 782.655C521.341 782.802 523.157 783.11 525.437 783.264C527.151 783.379 528.936 783.822 530.768 784.125C532.326 784.383 533.509 784.937 534.778 785.393C536.339 785.955 537.467 786.763 538.686 787.12C539.961 787.492 541.425 787.677 542.897 788.083C544.441 788.51 546.296 788.59 547.919 788.946C549.911 789.384 551.569 789.302 552.996 789.555C554.402 789.804 556.24 790.112 558.876 790.266C560.723 790.374 562.128 790.721 563.853 790.875C565.194 790.995 566.792 791.33 568.521 791.484C569.342 791.557 571.956 791.738 575.506 791.788C577.254 791.813 580.475 792.043 584.938 792.093C586.995 792.116 590.117 792.347 594.428 792.397C596.027 792.416 596.428 792.548 600.805 792.6C605.182 792.652 613.521 792.652 617.967 792.601C624.236 792.53 627.483 792.146 629.26 791.79C631.606 791.319 633.268 791.233 635.096 791.079C636.439 790.966 637.835 790.624 639.411 790.217C640.796 789.86 642.201 789.406 643.471 789C644.904 788.541 646.159 788.292 647.378 787.832C648.621 787.363 650.318 787.275 651.893 786.868C653.186 786.535 654.58 786.258 655.953 785.905C657.48 785.512 658.843 785.144 660.418 784.687C661.794 784.288 662.904 783.621 664.124 783.215C665.343 782.708 666.256 782.099 666.763 781.644C666.969 781.39 667.069 781.088 667.173 780.169" stroke="#FFC49A" stroke-width="15" stroke-linecap="round"/>
<path d="M595.32 791.738C594.513 792.043 592.89 792.244 591.368 792.6C589.875 792.949 588.226 792.956 586.045 793.209C582.256 793.648 580.815 792.956 578.737 792.703C574.949 792.243 572.705 792.347 570.063 792.094C564.292 791.542 561.647 791.738 559.45 791.435C558.128 791.253 556.763 790.624 555.44 790.47C554.105 790.315 552.702 790.015 551.029 789.659C548.688 789.16 547.02 789.102 544.131 788.948C542.216 788.846 540.627 788.389 539.051 788.086C537.741 787.834 536.364 787.074 534.991 786.564C533.53 786.021 532.303 785.247 531.083 784.737C529.898 784.241 528.649 784.127 526.877 783.874C522.7 783.278 521.038 783.317 519.617 782.86C517.397 782.146 516.166 781.794 514.897 781.641C513.27 781.444 511.904 780.577 510.684 780.17C509.432 779.753 508.049 778.853 506.726 778.091C505.564 777.421 504.292 776.722 502.72 775.859C500.944 774.885 499.725 774.286 498.456 773.474C496.949 772.509 495.767 771.242 494.851 770.126C494.647 769.82 494.446 769.519 494.292 769.162C494.139 768.806 494.038 768.404 493.935 767.99" stroke="#FFC49A" stroke-width="15" stroke-linecap="round"/>
<path d="M495.457 767.077C496.166 769.001 496.772 770.621 497.987 772.296C500.456 775.699 502.551 776.911 504.028 778.085C505.516 779.268 507.221 780.163 508.797 781.029C509.981 781.68 511.484 782.093 512.807 782.603C514.071 783.09 516.148 783.311 518.132 783.618C520.471 783.981 521.635 784.632 523.157 784.836C524.878 785.067 526.402 785.649 527.826 785.952C529.562 786.322 530.768 786.563 533.554 787.371C535.336 787.888 536.754 788.085 538.278 788.438C540.644 788.986 542.234 789.303 543.607 789.606C545.195 789.956 546.801 790.216 548.377 790.519C549.661 790.766 550.863 791.026 552.082 791.18C553.416 791.348 555.625 791.836 557.763 792.093C559.396 792.289 561.415 792.548 563.294 792.702C564.985 792.84 567.395 793.157 569.132 793.311C570.569 793.438 572.376 793.766 574.507 793.92C577.545 794.139 581.513 794.275 585.188 794.427C588.358 794.558 594.187 794.479 597.39 794.428C603.122 794.338 607.389 793.973 608.712 793.819C610.145 793.653 611.956 793.364 613.531 793.211C614.822 793.085 616.218 792.755 618.047 792.399C619.452 792.125 620.889 791.842 622.259 791.486C624.28 790.96 625.76 791.13 626.979 790.827C628.294 790.5 630.12 790.119 631.799 789.609C633.38 789.129 635.801 788.091 637.331 787.175C638.651 786.161 639.768 785.043 640.325 784.436C640.581 784.13 640.782 783.829 641.294 782.909" stroke="#FFC49A" stroke-width="15" stroke-linecap="round"/>
<path d="M565.984 834.803C566.334 834.626 567.741 835.152 569.022 835.639C570.797 836.314 572.065 836.565 573.344 836.919C574.462 837.227 575.504 837.624 576.564 837.933C577.589 838.233 578.68 838.418 579.783 838.771C581.029 839.17 582.643 839.386 584.456 839.785C585.885 840.101 587.496 840.27 588.999 840.403C590.337 840.522 592.078 840.974 593.718 841.373C594.799 841.637 595.878 841.857 596.981 842.21C598.309 842.635 599.757 842.651 601.214 843.004C603.022 843.443 604.784 843.974 606.153 844.108C607.463 844.235 609.891 844.593 611.534 844.856C613.08 845.104 614.839 845.297 616.428 845.607C617.563 845.828 620.03 845.916 622.773 846.136C624.955 846.311 626.573 846.268 627.974 846.4C631.108 846.696 633.54 846.533 636.252 846.665C642.973 846.993 647.741 846.623 648.356 846.49C649.83 846.173 650.913 846.006 652.193 845.872C653.398 845.746 654.618 845.477 655.897 845.124C657.001 844.858 658.057 844.683 659.117 844.33C659.383 844.241 659.645 844.154 659.915 844.064" stroke="#FFC49A" stroke-width="15" stroke-linecap="round"/>
<path d="M610.966 849.091C610.177 848.917 608.415 848.562 607.134 848.343C605.431 848.051 604.181 848.033 603.032 847.813C601.983 847.613 600.916 847.329 599.593 846.976C598.244 846.616 597.212 846.006 596.152 845.39C594.82 844.614 593.068 843.715 591.875 843.272C590.606 842.8 589.539 842.302 588.479 841.729C587.411 841.152 586.099 840.804 585.039 840.317C583.944 839.814 582.924 839.391 582.17 839.038C581.24 838.603 584.236 839.211 585.559 839.784C586.855 840.345 587.941 840.799 589.22 841.372C590.292 841.852 591.38 842.297 592.791 842.827C594.64 843.523 595.614 844.239 596.717 844.636C598.038 845.111 599.054 845.562 600.992 846.354C602.314 846.895 604.599 847.763 607.867 848.735C610.129 849.408 611.754 849.621 612.814 849.84C613.859 850.057 614.929 850.15 616.515 850.633C618.067 851.105 619.337 851.118 620.531 851.252C621.986 851.473 623.396 851.647 625.068 851.957C625.772 852.002 626.82 852.002 627.899 852.002" stroke="#FFC49A" stroke-width="15" stroke-linecap="round"/>
<path d="M644.039 853.06C645.359 853.764 646.415 854.468 647.475 855.174C648.534 855.881 649.59 856.41 650.65 856.983C651.718 857.56 654.252 857.558 655.942 857.339C656.47 857.294 657.089 857.206 657.749 857.03C658.06 856.942 658.322 856.854 658.592 856.764" stroke="#FFC49A" stroke-width="15" stroke-linecap="round"/>
<path d="M664.553 862.861C664.594 862.738 664.717 862.491 664.81 862.182C664.92 861.815 665.212 861.564 665.294 861.306C665.394 860.996 665.397 860.699 665.469 860.329C665.636 859.478 665.418 858.644 665.469 858.041C665.519 857.465 665.542 857.094 665.593 856.682C665.636 856.337 665.624 856.063 665.655 855.531C665.733 854.187 665.645 853.22 665.614 852.882C665.544 852.12 665.583 851.531 665.552 851.183C665.443 849.949 665.604 849.575 665.655 849.183C665.711 848.752 665.727 848.38 665.779 847.356C665.818 846.561 665.789 845.03 665.779 844.211C665.768 843.331 665.727 843.044 665.717 842.664C665.696 841.871 665.706 840.757 665.737 840.129C665.767 839.541 665.83 838.717 665.81 837.566C665.806 837.352 665.688 837.376 665.615 837.397C665.244 837.503 664.699 837.5 664.42 837.582C664.104 837.676 663.772 837.706 663.503 837.768C663.249 837.826 663.009 837.932 662.751 838.015C662.456 838.11 662.206 838.18 661.958 838.313C661.702 838.452 661.402 838.55 661.103 838.643C660.826 838.729 660.599 838.859 660.3 838.942C660.014 839.021 659.693 839.168 659.424 839.302C659.17 839.429 658.868 839.518 658.569 839.632C658.497 839.663 658.436 839.704 658.363 839.745C658.291 839.787 658.209 839.827 658.063 839.869" stroke="#FFC49A" stroke-width="5" stroke-linecap="round"/>
<path d="M665.215 835.412C665.33 835.412 665.51 835.387 665.684 835.342C665.877 835.291 666.063 835.271 666.256 835.252C666.453 835.232 666.603 835.155 666.764 835.104C667.113 834.992 667.644 835.04 667.799 835.02C668.141 834.977 667.941 836.17 667.96 836.44C667.966 836.505 667.979 836.556 667.986 836.601C667.992 836.646 667.992 836.684 667.992 836.724" stroke="#FFC49A" stroke-linecap="round"/>
</svg>
