<svg width="32" height="23" viewBox="0 0 32 23" fill="none" xmlns="http://www.w3.org/2000/svg">
<path d="M15.8081 1C21.9739 1.00006 26.1912 4.3625 28.7524 7.40527C29.4416 8.22487 29.8518 8.72096 30.1206 9.27734C30.3705 9.79472 30.522 10.4227 30.522 11.5C30.522 12.5764 30.3706 13.2048 30.1206 13.7227C29.8519 14.2792 29.442 14.7756 28.7534 15.5938C26.1923 18.6367 21.9744 21.9999 15.8081 22C9.64172 22 5.42398 18.6367 2.86279 15.5938H2.86182C2.17322 14.7748 1.76428 14.2788 1.49561 13.7227C1.24568 13.2053 1.09424 12.5773 1.09424 11.5C1.09424 10.4235 1.24564 9.79578 1.49561 9.27832C1.76448 8.72182 2.17364 8.22461 2.86279 7.4043C5.42405 4.36157 9.64236 1 15.8081 1ZM15.8081 5.10938C14.0074 5.10938 12.2643 5.76281 10.9663 6.9502C9.66528 8.14039 8.91553 9.77491 8.91553 11.5C8.91553 13.2251 9.66528 14.8596 10.9663 16.0498C12.2643 17.2372 14.0074 17.8906 15.8081 17.8906C17.6088 17.8906 19.3519 17.2372 20.6499 16.0498C21.9509 14.8596 22.7007 13.2251 22.7007 11.5C22.7007 9.77493 21.9509 8.14038 20.6499 6.9502C19.3519 5.76276 17.6088 5.10941 15.8081 5.10938Z" stroke="black" stroke-width="2"/>
</svg>
