<svg width="14" height="14" viewBox="0 0 14 14" fill="none" xmlns="http://www.w3.org/2000/svg">
<path d="M1 7C1 6.21207 1.15519 5.43185 1.45672 4.7039C1.75825 3.97595 2.20021 3.31451 2.75736 2.75736C3.31451 2.20021 3.97595 1.75825 4.7039 1.45672C5.43185 1.15519 6.21207 1 7 1C7.78793 1 8.56815 1.15519 9.2961 1.45672C10.0241 1.75825 10.6855 2.20021 11.2426 2.75736C11.7998 3.31451 12.2417 3.97595 12.5433 4.7039C12.8448 5.43185 13 6.21207 13 7C13 8.5913 12.3679 10.1174 11.2426 11.2426C10.1174 12.3679 8.5913 13 7 13C5.4087 13 3.88258 12.3679 2.75736 11.2426C1.63214 10.1174 1 8.5913 1 7ZM7 0C5.14348 0 3.36301 0.737498 2.05025 2.05025C0.737498 3.36301 0 5.14348 0 7C0 8.85652 0.737498 10.637 2.05025 11.9497C3.36301 13.2625 5.14348 14 7 14C8.85652 14 10.637 13.2625 11.9497 11.9497C13.2625 10.637 14 8.85652 14 7C14 5.14348 13.2625 3.36301 11.9497 2.05025C10.637 0.737498 8.85652 0 7 0ZM7 3.5C7 3.36739 6.94732 3.24021 6.85355 3.14645C6.75979 3.05268 6.63261 3 6.5 3C6.36739 3 6.24021 3.05268 6.14645 3.14645C6.05268 3.24021 6 3.36739 6 3.5V7.5C6 7.63261 6.05268 7.75979 6.14645 7.85355C6.24021 7.94732 6.36739 8 6.5 8H9.5C9.63261 8 9.75979 7.94732 9.85355 7.85355C9.94732 7.75979 10 7.63261 10 7.5C10 7.36739 9.94732 7.24021 9.85355 7.14645C9.75979 7.05268 9.63261 7 9.5 7H7V3.5Z" fill="black"/>
</svg>
