<svg width="23" height="23" viewBox="0 0 23 23" fill="none" xmlns="http://www.w3.org/2000/svg">
<rect x="0.25" y="0.25" width="22.5" height="22.5" rx="6.75" fill="#D9E9FF" stroke="#246AFE" stroke-width="0.5"/>
<path d="M13.5 5.875C13.8297 5.8797 14.1442 6.01448 14.375 6.25L16.75 8.625C16.9855 8.85579 17.1203 9.17029 17.125 9.5V15.875C17.125 16.2065 16.9933 16.5245 16.7589 16.7589C16.5245 16.9933 16.2065 17.125 15.875 17.125H7.125C6.79348 17.125 6.47554 16.9933 6.24112 16.7589C6.0067 16.5245 5.875 16.2065 5.875 15.875V7.125C5.875 6.79348 6.0067 6.47554 6.24112 6.24112C6.47554 6.0067 6.79348 5.875 7.125 5.875H13.5Z" stroke="#246AFE" stroke-linecap="round" stroke-linejoin="round"/>
<path d="M14.625 17.125V12.75C14.625 12.5842 14.5592 12.4253 14.4419 12.3081C14.3247 12.1908 14.1658 12.125 14 12.125H9C8.83424 12.125 8.67527 12.1908 8.55806 12.3081C8.44085 12.4253 8.375 12.5842 8.375 12.75V17.125M8.375 5.875V8.375C8.375 8.54076 8.44085 8.69973 8.55806 8.81694C8.67527 8.93415 8.83424 9 9 9H13.375" stroke="#246AFE" stroke-linecap="round" stroke-linejoin="round"/>
</svg>
