<svg width="32" height="34" viewBox="0 0 32 34" fill="none" xmlns="http://www.w3.org/2000/svg">
<mask id="path-1-inside-1_474_482" fill="white">
<path d="M27.7281 17.7886C30.0113 17.7886 31.9174 19.6747 31.2841 21.8682C31.1107 22.4685 30.899 23.0594 30.6495 23.6372C29.8488 25.4915 28.6754 27.1763 27.196 28.5955C25.7167 30.0146 23.9605 31.1404 22.0276 31.9084C20.0948 32.6765 18.0232 33.0718 15.9311 33.0718C13.839 33.0718 11.7674 32.6765 9.83451 31.9084C7.90167 31.1404 6.14544 30.0146 4.6661 28.5955C3.18676 27.1763 2.01329 25.4915 1.21268 23.6372C0.96317 23.0594 0.751398 22.4685 0.578075 21.8682C-0.0552617 19.6747 1.85085 17.7886 4.13399 17.7886L15.9311 17.7886H27.7281Z"/>
</mask>
<path d="M27.7281 17.7886C30.0113 17.7886 31.9174 19.6747 31.2841 21.8682C31.1107 22.4685 30.899 23.0594 30.6495 23.6372C29.8488 25.4915 28.6754 27.1763 27.196 28.5955C25.7167 30.0146 23.9605 31.1404 22.0276 31.9084C20.0948 32.6765 18.0232 33.0718 15.9311 33.0718C13.839 33.0718 11.7674 32.6765 9.83451 31.9084C7.90167 31.1404 6.14544 30.0146 4.6661 28.5955C3.18676 27.1763 2.01329 25.4915 1.21268 23.6372C0.96317 23.0594 0.751398 22.4685 0.578075 21.8682C-0.0552617 19.6747 1.85085 17.7886 4.13399 17.7886L15.9311 17.7886H27.7281Z" stroke="#101010" stroke-width="4.86719" mask="url(#path-1-inside-1_474_482)"/>
<path d="M16.1919 1.21674C19.8951 1.21674 22.8101 4.08452 22.8101 7.51654C22.8099 10.9484 19.895 13.8154 16.1919 13.8154C12.4888 13.8154 9.57388 10.9484 9.57373 7.51654C9.57373 4.08452 12.4887 1.21674 16.1919 1.21674Z" stroke="#101010" stroke-width="2.43359"/>
</svg>
